<?xml version="1.0" encoding="UTF-8" standalone="no"?>
<!-- Created with Inkscape (http://www.inkscape.org/) -->

<svg
   xmlns:dc="http://purl.org/dc/elements/1.1/"
   xmlns:cc="http://creativecommons.org/ns#"
   xmlns:rdf="http://www.w3.org/1999/02/22-rdf-syntax-ns#"
   xmlns:svg="http://www.w3.org/2000/svg"
   xmlns="http://www.w3.org/2000/svg"
   xmlns:xlink="http://www.w3.org/1999/xlink"
   xmlns:sodipodi="http://sodipodi.sourceforge.net/DTD/sodipodi-0.dtd"
   xmlns:inkscape="http://www.inkscape.org/namespaces/inkscape"
   width="900"
   height="690.94489"
   viewBox="0 0 899.99999 690.94486"
   id="svg2"
   version="1.1"
   inkscape:version="0.91 r"
   sodipodi:docname="Stuning2.svg"
   inkscape:export-filename="/media/rizmut/Data MultiOS/Master/Perkantoran/LibreOffice/Impress/Palet/Stuning2.png"
   inkscape:export-xdpi="90"
   inkscape:export-ydpi="90">
  <defs
     id="defs4">
    <linearGradient
       inkscape:collect="always"
       id="linearGradient4481">
      <stop
         style="stop-color:#082527;stop-opacity:1;"
         offset="0"
         id="stop4483" />
      <stop
         id="stop4489"
         offset="0.5"
         style="stop-color:#229ea7;stop-opacity:1" />
      <stop
         style="stop-color:#082527;stop-opacity:1"
         offset="1"
         id="stop4485" />
    </linearGradient>
    <linearGradient
       inkscape:collect="always"
       id="linearGradient4467">
      <stop
         style="stop-color:#56686a;stop-opacity:1"
         offset="0"
         id="stop4469" />
      <stop
         style="stop-color:#1d3032;stop-opacity:0"
         offset="1"
         id="stop4471" />
    </linearGradient>
    <linearGradient
       inkscape:collect="always"
       id="linearGradient4417">
      <stop
         style="stop-color:#b5b5b5;stop-opacity:1;"
         offset="0"
         id="stop4419" />
      <stop
         style="stop-color:#b5b5b5;stop-opacity:0;"
         offset="1"
         id="stop4421" />
    </linearGradient>
    <linearGradient
       inkscape:collect="always"
       id="linearGradient4382">
      <stop
         style="stop-color:#535353;stop-opacity:1"
         offset="0"
         id="stop4384" />
      <stop
         style="stop-color:#dcdcdc;stop-opacity:0;"
         offset="1"
         id="stop4386" />
    </linearGradient>
    <linearGradient
       inkscape:collect="always"
       id="linearGradient4358">
      <stop
         style="stop-color:#a5eded;stop-opacity:1"
         offset="0"
         id="stop4360" />
      <stop
         style="stop-color:#a5ebed;stop-opacity:0"
         offset="1"
         id="stop4362" />
    </linearGradient>
    <linearGradient
       inkscape:collect="always"
       id="linearGradient4302">
      <stop
         style="stop-color:#dff6f8;stop-opacity:1"
         offset="0"
         id="stop4304" />
      <stop
         style="stop-color:#65e0e0;stop-opacity:1"
         offset="1"
         id="stop4306" />
    </linearGradient>
    <filter
       inkscape:collect="always"
       style="color-interpolation-filters:sRGB"
       id="filter4241"
       x="-0.014911877"
       width="1.0298238"
       y="-0.061452635"
       height="1.1229053">
      <feGaussianBlur
         inkscape:collect="always"
         stdDeviation="5.591954"
         id="feGaussianBlur4243" />
    </filter>
    <filter
       inkscape:collect="always"
       style="color-interpolation-filters:sRGB"
       id="filter4271"
       x="-0.01528521"
       width="1.0305704"
       y="-0.055832811"
       height="1.1116656">
      <feGaussianBlur
         inkscape:collect="always"
         stdDeviation="5.7319538"
         id="feGaussianBlur4273" />
    </filter>
    <radialGradient
       inkscape:collect="always"
       xlink:href="#linearGradient4302"
       id="radialGradient4308"
       cx="6.0197499e-07"
       cy="14.545901"
       fx="6.0197499e-07"
       fy="14.545901"
       r="104.01269"
       gradientTransform="matrix(0.78954412,0.88992287,-1.492005,1.3237144,21.702557,-19.254617)"
       gradientUnits="userSpaceOnUse" />
    <linearGradient
       inkscape:collect="always"
       xlink:href="#linearGradient4358"
       id="linearGradient4364"
       x1="100.40916"
       y1="102.1011"
       x2="109.92188"
       y2="110.58639"
       gradientUnits="userSpaceOnUse" />
    <linearGradient
       inkscape:collect="always"
       xlink:href="#linearGradient4382"
       id="linearGradient4388"
       x1="506"
       y1="58.542969"
       x2="524"
       y2="414.54297"
       gradientUnits="userSpaceOnUse" />
    <linearGradient
       inkscape:collect="always"
       xlink:href="#linearGradient4417"
       id="linearGradient4423"
       x1="837.63672"
       y1="76.749924"
       x2="842"
       y2="150.74992"
       gradientUnits="userSpaceOnUse" />
    <linearGradient
       inkscape:collect="always"
       xlink:href="#linearGradient4467"
       id="linearGradient4473"
       x1="742.27612"
       y1="481.78571"
       x2="740.94714"
       y2="452.08725"
       gradientUnits="userSpaceOnUse"
       gradientTransform="matrix(0.98289799,0,0,0.98289799,11.389939,6.1809641)" />
    <linearGradient
       inkscape:collect="always"
       xlink:href="#linearGradient4481"
       id="linearGradient4487"
       x1="-118.79394"
       y1="353.77731"
       x2="630.82568"
       y2="-103.23759"
       gradientUnits="userSpaceOnUse" />
    <linearGradient
       inkscape:collect="always"
       xlink:href="#linearGradient4382"
       id="linearGradient4580"
       gradientUnits="userSpaceOnUse"
       x1="506"
       y1="58.542969"
       x2="524"
       y2="414.54297"
       gradientTransform="matrix(-1,0,0,-1,902.24331,1054.3622)" />
    <linearGradient
       inkscape:collect="always"
       xlink:href="#linearGradient4481"
       id="linearGradient4582"
       gradientUnits="userSpaceOnUse"
       x1="-118.79394"
       y1="353.77731"
       x2="630.82568"
       y2="-103.23759"
       gradientTransform="matrix(-1,0,0,-1,902.24331,1054.3622)" />
    <linearGradient
       inkscape:collect="always"
       xlink:href="#linearGradient4358"
       id="linearGradient4584"
       gradientUnits="userSpaceOnUse"
       x1="100.40916"
       y1="102.1011"
       x2="109.92188"
       y2="110.58639"
       gradientTransform="matrix(-1,0,0,-1,902.24331,1054.3622)" />
    <radialGradient
       inkscape:collect="always"
       xlink:href="#linearGradient4302"
       id="radialGradient4586"
       gradientUnits="userSpaceOnUse"
       gradientTransform="matrix(-0.78954412,-0.88992287,1.492005,-1.3237144,880.54075,1073.6168)"
       cx="6.0197499e-07"
       cy="14.545901"
       fx="6.0197499e-07"
       fy="14.545901"
       r="104.01269" />
    <linearGradient
       inkscape:collect="always"
       xlink:href="#linearGradient4417"
       id="linearGradient4588"
       gradientUnits="userSpaceOnUse"
       x1="837.63672"
       y1="76.749924"
       x2="842"
       y2="150.74992"
       gradientTransform="matrix(-1,0,0,-1,902.24331,1054.3622)" />
    <linearGradient
       inkscape:collect="always"
       xlink:href="#linearGradient4467"
       id="linearGradient4590"
       gradientUnits="userSpaceOnUse"
       gradientTransform="matrix(-0.98289799,0,0,-0.98289799,890.85337,1409.5986)"
       x1="742.27612"
       y1="481.78571"
       x2="740.94714"
       y2="452.08725" />
    <filter
       inkscape:collect="always"
       style="color-interpolation-filters:sRGB"
       id="filter4716"
       x="-0.041520252"
       width="1.0830405"
       y="-0.27077188"
       height="1.5415438">
      <feGaussianBlur
         inkscape:collect="always"
         stdDeviation="15.570095"
         id="feGaussianBlur4718" />
    </filter>
  </defs>
  <sodipodi:namedview
     id="base"
     pagecolor="#ffffff"
     bordercolor="#666666"
     borderopacity="1.0"
     inkscape:pageopacity="0.0"
     inkscape:pageshadow="2"
     inkscape:zoom="0.35355339"
     inkscape:cx="31.382524"
     inkscape:cy="456.46956"
     inkscape:document-units="px"
     inkscape:current-layer="layer1"
     showgrid="false"
     units="px"
     inkscape:snap-page="true"
     inkscape:window-width="1366"
     inkscape:window-height="738"
     inkscape:window-x="0"
     inkscape:window-y="0"
     inkscape:window-maximized="1"
     showguides="false" />
  <metadata
     id="metadata7">
    <rdf:RDF>
      <cc:Work
         rdf:about="">
        <dc:format>image/svg+xml</dc:format>
        <dc:type
           rdf:resource="http://purl.org/dc/dcmitype/StillImage" />
        <dc:title></dc:title>
      </cc:Work>
    </rdf:RDF>
  </metadata>
  <g
     inkscape:label="Layer 1"
     inkscape:groupmode="layer"
     id="layer1"
     transform="translate(0,-361.41738)">
    <rect
       style="fill:#f9f9f9;fill-rule:evenodd;stroke:none;stroke-width:1px;stroke-linecap:butt;stroke-linejoin:miter;stroke-opacity:1"
       id="rect3336"
       width="900"
       height="690.94489"
       x="0"
       y="361.41739" />
    <path
       style="fill:url(#linearGradient4388);fill-opacity:1;fill-rule:evenodd;stroke:none;stroke-width:1px;stroke-linecap:butt;stroke-linejoin:miter;stroke-opacity:1"
       d="M 0,0 0,397.08594 C 235.08139,357.3972 414.63072,323.97304 900,377.88672 L 900,0 0,0 Z"
       id="path4377"
       transform="translate(0,361.41738)"
       inkscape:connector-curvature="0" />
    <path
       style="fill:#000000;fill-rule:evenodd;stroke:none;stroke-width:1px;stroke-linecap:butt;stroke-linejoin:miter;stroke-opacity:1"
       d="M 690.22266,0 C 401.90683,37.352423 131.07008,179.98227 0,305.91797 l 0,24.65625 C 192.14618,212.26536 538.63812,110.87903 900,133.31641 L 900,0 690.22266,0 Z"
       id="path3342"
       transform="translate(0,361.41738)"
       inkscape:connector-curvature="0" />
    <path
       style="fill:url(#linearGradient4487);fill-opacity:1;fill-rule:evenodd;stroke:none;stroke-width:1px;stroke-linecap:butt;stroke-linejoin:miter;stroke-opacity:1"
       d="M 342.79883,0 C 217.10469,68.801997 59.423927,198.9118 0,275.68164 l 0,30.23633 C 131.07008,179.98227 401.90683,37.352423 690.22266,0 L 342.79883,0 Z"
       id="path3348"
       transform="translate(0,361.41738)"
       inkscape:connector-curvature="0" />
    <path
       style="fill:#092a34;fill-opacity:1;fill-rule:evenodd;stroke:none;stroke-width:1px;stroke-linecap:butt;stroke-linejoin:miter;stroke-opacity:1"
       d="M 208.02539,0 C 124.80654,69.105459 55.881213,158.10163 0,237.11719 l 0,38.56445 C 59.423927,198.9118 217.10469,68.801997 342.79883,0 L 208.02539,0 Z"
       transform="translate(0,361.41738)"
       id="path4168"
       inkscape:connector-curvature="0" />
    <path
       style="fill:url(#linearGradient4364);fill-opacity:1;fill-rule:evenodd;stroke:none;stroke-width:1px;stroke-linecap:butt;stroke-linejoin:miter;stroke-opacity:1"
       d="M 208.02539,0 C 124.80654,69.105459 55.881213,158.10163 0,237.11719 l 0,12.33984 C 59.283629,165.96271 132.01521,72.754573 219.52344,0 l -11.49805,0 z"
       transform="translate(0,361.41738)"
       id="path4279"
       inkscape:connector-curvature="0" />
    <path
       style="opacity:0.76999996;fill:#25434b;fill-opacity:1;fill-rule:evenodd;stroke:none;stroke-width:1px;stroke-linecap:butt;stroke-linejoin:miter;stroke-opacity:1;filter:url(#filter4241)"
       d="M 798.87305,84.18359 C 475.02651,84.0386 174.13248,199.35681 0,306.57422 l 0,24 C 192.14618,212.26536 538.63812,110.87903 900,133.31641 l 0,-46 C 866.12232,85.2129 832.37441,84.19859 798.87305,84.18359 Z"
       id="path4218"
       inkscape:connector-curvature="0"
       sodipodi:nodetypes="sccccs"
       transform="translate(0,361.41738)" />
    <path
       sodipodi:nodetypes="sccccs"
       inkscape:connector-curvature="0"
       id="path4245"
       d="M 798.87305,435.60097 C 475.02651,435.45598 174.13248,566.77419 0,673.9916 l 0,6 C 192.14618,561.68274 538.63812,448.29641 900,470.73379 l 0,-32 c -33.87768,-2.10351 -67.62559,-3.11782 -101.12695,-3.13282 z"
       style="opacity:0.5699999;fill:#17676e;fill-opacity:1;fill-rule:evenodd;stroke:none;stroke-width:1px;stroke-linecap:butt;stroke-linejoin:miter;stroke-opacity:1;filter:url(#filter4271)" />
    <path
       style="fill:url(#radialGradient4308);fill-opacity:1;fill-rule:evenodd;stroke:none;stroke-width:1px;stroke-linecap:butt;stroke-linejoin:miter;stroke-opacity:1"
       d="M 0,0 0,237.11719 C 55.881213,158.10163 124.80654,69.105459 208.02539,0 L 0,0 Z"
       transform="translate(0,361.41738)"
       id="path4207"
       inkscape:connector-curvature="0" />
    <path
       style="opacity:0.83999999;fill:#e6fafa;fill-opacity:1;stroke:none;stroke-opacity:1"
       d="M 856.36719,48.126953 A 107.36753,107.36753 0 0 0 749,155.49414 107.36753,107.36753 0 0 0 856.36719,262.86133 107.36753,107.36753 0 0 0 900,253.44922 l 0,-195.966798 a 107.36753,107.36753 0 0 0 -43.63281,-9.355469 z"
       transform="translate(0,361.41738)"
       id="path4372"
       inkscape:connector-curvature="0" />
    <path
       style="opacity:0.83999999;fill:#c7cfd0;fill-opacity:1;stroke:none;stroke-opacity:1"
       d="m 798.87305,130.18359 c -15.68235,-0.007 -31.30623,0.21639 -46.86914,0.63868 A 107.36753,107.36753 0 0 0 749,155.49414 a 107.36753,107.36753 0 0 0 20.47852,62.89258 c 9.77521,-0.13515 19.57421,-0.20558 29.39453,-0.20313 33.50136,0.008 67.24927,0.57461 101.12695,1.75 l 0,-86.61718 c -33.87768,-2.10351 -67.62559,-3.11782 -101.12695,-3.13282 z"
       id="path4411"
       transform="translate(0,361.41738)"
       inkscape:connector-curvature="0" />
    <path
       style="opacity:0.83999999;fill:url(#linearGradient4423);fill-opacity:1;stroke:none;stroke-opacity:1"
       d="m 798.87305,130.18359 c -15.64498,-0.007 -31.23168,0.21448 -46.75782,0.63477 a 107.36753,107.36753 0 0 0 -2.47851,14.06055 c 49.57619,-1.41357 99.82381,-0.70056 150.36328,2.4375 l 0,-14 c -33.87768,-2.10351 -67.62559,-3.11782 -101.12695,-3.13282 z"
       transform="translate(0,361.41738)"
       id="path4401"
       inkscape:connector-curvature="0" />
    <path
       inkscape:connector-curvature="0"
       style="opacity:0.83999999;fill:#4e6161;fill-opacity:1;stroke:none;stroke-opacity:1"
       d="M 682.59792,361.41738 A 69.785757,69.785757 0 0 0 666,406.57693 a 69.785757,69.785757 0 0 0 69.78576,69.78576 69.785757,69.785757 0 0 0 69.78575,-69.78576 69.785757,69.785757 0 0 0 -16.68431,-45.15955 l -106.28928,0 z"
       id="path4394" />
    <path
       style="opacity:0.82999998;fill:#979797;fill-opacity:1;fill-rule:evenodd;stroke:none;stroke-width:1px;stroke-linecap:butt;stroke-linejoin:miter;stroke-opacity:1"
       d="M 856.36719,48.126953 A 107.36753,107.36753 0 0 0 752.00391,130.82227 c 48.80914,-1.32441 98.25991,-0.59404 147.99609,2.49414 l 0,-75.833988 a 107.36753,107.36753 0 0 0 -43.63281,-9.355469 z"
       id="path4462"
       transform="translate(0,361.41738)"
       inkscape:connector-curvature="0" />
    <path
       inkscape:connector-curvature="0"
       style="opacity:0.83999999;fill:url(#linearGradient4473);fill-opacity:1;stroke:none;stroke-opacity:1"
       d="m 794.5715,444.17086 c -38.41407,0.041 -76.49536,1.73126 -114.06608,4.85882 a 69.785757,69.785757 0 0 0 55.28034,27.33301 69.785757,69.785757 0 0 0 58.78574,-32.19183 z"
       id="path4448" />
    <circle
       style="opacity:0.82999998;fill:#e3f2f3;fill-opacity:1;stroke:none;stroke-opacity:1"
       id="path4475"
       cx="34.5"
       cy="471.86227"
       r="8.5" />
    <circle
       r="15"
       cy="511.3623"
       cx="28"
       id="circle4477"
       style="opacity:0.31000001;fill:#e3f2f3;fill-opacity:1;stroke:none;stroke-opacity:1" />
    <circle
       style="opacity:0.31999996;fill:#e3f2f3;fill-opacity:1;stroke:none;stroke-opacity:1"
       id="circle4479"
       cx="147"
       cy="459.3623"
       r="14" />
    <circle
       style="opacity:0.18000004;fill:#eaeeee;fill-opacity:1;stroke:none;stroke-opacity:1"
       id="path4509"
       cx="310.34314"
       cy="558.0191"
       r="72.343147" />
    <circle
       r="42"
       cy="492.36224"
       cx="382"
       id="circle4511"
       style="opacity:0.18000004;fill:#eaeeee;fill-opacity:1;stroke:none;stroke-opacity:1" />
    <rect
       y="387.41739"
       x="0"
       height="664.94489"
       width="900"
       id="rect4513"
       style="fill:#f9f9f9;fill-rule:evenodd;stroke:none;stroke-width:1px;stroke-linecap:butt;stroke-linejoin:miter;stroke-opacity:1" />
    <path
       inkscape:connector-curvature="0"
       id="path4534"
       d="m 902.24331,1054.3622 0,-397.0859 c -235.08139,39.6887 -414.63072,73.1129 -900,19.1992 l 0,377.8867 900,0 z"
       style="opacity:0.09500002;fill:url(#linearGradient4580);fill-opacity:1;fill-rule:evenodd;stroke:none;stroke-width:1px;stroke-linecap:butt;stroke-linejoin:miter;stroke-opacity:1" />
    <path
       sodipodi:nodetypes="sccccs"
       inkscape:connector-curvature="0"
       id="path4536"
       d="m 108.04604,857.28214 c 289.66779,-0.20758 594.67284,-69.9718 794.19727,-142.27734 l 0,-15.7285 c -235.08139,39.6887 -414.63072,131.11288 -900,77.1992 l 0,77.61133 c 34.88682,2.19665 70.2295,3.2208 105.80273,3.19531 z"
       style="opacity:0.09500002;fill:#bceef2;fill-opacity:1;fill-rule:evenodd;stroke:none;stroke-width:1px;stroke-linecap:butt;stroke-linejoin:miter;stroke-opacity:1" />
    <path
       sodipodi:nodetypes="sccccs"
       inkscape:connector-curvature="0"
       id="path4538"
       d="m 103.37026,858.1787 c 323.84654,0.081 624.74057,-76.06276 798.87305,-135.973 l 0,-17.2009 c -224.02743,45.3642 -581.03478,98.93764 -900,87.71541 l 0,63.70795 c 33.87768,1.17539 67.62559,1.74216 101.12695,1.75054 z"
       style="opacity:0.09500002;fill:#3a8185;fill-opacity:1;fill-rule:evenodd;stroke:none;stroke-width:1px;stroke-linecap:butt;stroke-linejoin:miter;stroke-opacity:1" />
    <path
       inkscape:connector-curvature="0"
       id="path4540"
       d="M 212.02065,1054.3622 C 500.33648,1017.0098 771.17323,874.37995 902.24331,748.44425 l 0,-24.65625 c -192.14618,118.30886 -538.63812,219.69519 -900,197.25781 l 0,133.31639 209.77734,0 z"
       style="opacity:0.09500002;fill:#000000;fill-rule:evenodd;stroke:none;stroke-width:1px;stroke-linecap:butt;stroke-linejoin:miter;stroke-opacity:1" />
    <path
       inkscape:connector-curvature="0"
       id="path4542"
       d="M 559.44448,1054.3622 C 685.13862,985.56022 842.81938,855.45042 902.24331,778.68058 l 0,-30.23633 C 771.17323,874.37995 500.33648,1017.0098 212.02065,1054.3622 l 347.42383,0 z"
       style="opacity:0.09500002;fill:url(#linearGradient4582);fill-opacity:1;fill-rule:evenodd;stroke:none;stroke-width:1px;stroke-linecap:butt;stroke-linejoin:miter;stroke-opacity:1" />
    <path
       inkscape:connector-curvature="0"
       id="path4544"
       d="M 694.21792,1054.3622 C 777.43677,985.25676 846.3621,896.26059 902.24331,817.24503 l 0,-38.56445 C 842.81938,855.45042 685.13862,985.56022 559.44448,1054.3622 l 134.77344,0 z"
       style="opacity:0.04;fill:#092a34;fill-opacity:1;fill-rule:evenodd;stroke:none;stroke-width:1px;stroke-linecap:butt;stroke-linejoin:miter;stroke-opacity:1" />
    <path
       inkscape:connector-curvature="0"
       id="path4546"
       d="M 694.21792,1054.3622 C 777.43677,985.25676 846.3621,896.26059 902.24331,817.24503 l 0,-12.33984 C 842.95968,888.39951 770.2281,981.60765 682.71987,1054.3622 l 11.49805,0 z"
       style="opacity:0.09500002;fill:url(#linearGradient4584);fill-opacity:1;fill-rule:evenodd;stroke:none;stroke-width:1px;stroke-linecap:butt;stroke-linejoin:miter;stroke-opacity:1" />
    <path
       sodipodi:nodetypes="sccccs"
       inkscape:connector-curvature="0"
       id="path4548"
       d="M 808.87305,777.60097 C 485.02651,777.45598 184.13248,892.77419 10,999.9916 l 0,24 C 202.14618,905.68274 548.63812,804.29641 910,826.73379 l 0,-46 c -33.87768,-2.10351 -67.62559,-3.11782 -101.12695,-3.13282 z"
       style="opacity:0.09500002;fill:#25434b;fill-opacity:1;fill-rule:evenodd;stroke:none;stroke-width:1px;stroke-linecap:butt;stroke-linejoin:miter;stroke-opacity:1;filter:url(#filter4241)"
       transform="matrix(-1,0,0,-1,912.24331,1747.7796)" />
    <path
       style="opacity:0;fill:#17676e;fill-opacity:1;fill-rule:evenodd;stroke:none;stroke-width:1px;stroke-linecap:butt;stroke-linejoin:miter;stroke-opacity:1;filter:url(#filter4271)"
       d="M 808.87305,767.60097 C 485.02651,767.45598 184.13248,898.77419 10,1005.9916 l 0,6 C 202.14618,893.68274 548.63812,780.29641 910,802.73379 l 0,-32 c -33.87768,-2.10351 -67.62559,-3.11782 -101.12695,-3.13282 z"
       id="path4550"
       inkscape:connector-curvature="0"
       sodipodi:nodetypes="sccccs"
       transform="matrix(-1,0,0,-1,912.24331,1747.7796)" />
    <path
       inkscape:connector-curvature="0"
       id="path4552"
       d="m 902.24331,1054.3622 0,-237.11717 C 846.3621,896.26059 777.43677,985.25676 694.21792,1054.3622 l 208.02539,0 z"
       style="opacity:0.025;fill:url(#radialGradient4586);fill-opacity:1;fill-rule:evenodd;stroke:none;stroke-width:1px;stroke-linecap:butt;stroke-linejoin:miter;stroke-opacity:1" />
    <path
       style="opacity:0.09500002;fill:#ecefef;fill-opacity:1;fill-rule:evenodd;stroke:none;stroke-width:1px;stroke-linecap:butt;stroke-linejoin:miter;stroke-opacity:1;filter:url(#filter4716)"
       d="m 108.04604,815.28214 c 289.66779,-0.20758 594.67284,-49.9718 794.19727,-122.27734 l 0,-15.7285 c -235.08139,39.6887 -414.63072,111.11288 -900,57.1992 l 0,77.61133 c 34.88682,2.19665 70.2295,3.2208 105.80273,3.19531 z"
       id="path4554"
       inkscape:connector-curvature="0"
       sodipodi:nodetypes="sccccs" />
    <path
       inkscape:connector-curvature="0"
       id="path4556"
       d="M 45.87612,1006.2353 A 107.36753,107.36753 0 0 0 153.24331,898.86808 107.36753,107.36753 0 0 0 45.87612,791.50089 107.36753,107.36753 0 0 0 2.24331,800.913 l 0,195.9668 a 107.36753,107.36753 0 0 0 43.63281,9.3555 z"
       style="opacity:0.09500002;fill:#e6fafa;fill-opacity:1;stroke:none;stroke-opacity:1" />
    <path
       inkscape:connector-curvature="0"
       id="path4558"
       d="m 103.37026,924.17863 c 15.68235,0.007 31.30623,-0.21639 46.86914,-0.63868 a 107.36753,107.36753 0 0 0 3.00391,-24.67187 107.36753,107.36753 0 0 0 -20.47852,-62.89258 c -9.77521,0.13515 -19.57421,0.20558 -29.39453,0.20313 -33.50136,-0.008 -67.24927,-0.57461 -101.12695,-1.75 l 0,86.61718 c 33.87768,2.10351 67.62559,3.11782 101.12695,3.13282 z"
       style="opacity:0.09500002;fill:#c7cfd0;fill-opacity:1;stroke:none;stroke-opacity:1" />
    <path
       inkscape:connector-curvature="0"
       id="path4560"
       d="m 103.37026,924.17863 c 15.64498,0.007 31.23168,-0.21448 46.75782,-0.63477 a 107.36753,107.36753 0 0 0 2.47851,-14.06055 c -49.57619,1.41357 -99.82381,0.70056 -150.36328,-2.4375 l 0,14 c 33.87768,2.10351 67.62559,3.11782 101.12695,3.13282 z"
       style="opacity:0.065;fill:url(#linearGradient4588);fill-opacity:1;stroke:none;stroke-opacity:1" />
    <path
       inkscape:connector-curvature="0"
       id="path4562"
       d="m 103.37026,858.17863 c 9.82032,0.002 19.61932,-0.068 29.39453,-0.20313 A 107.36753,107.36753 0 0 0 112.9269,837.26456 c -1.6265,0.004 -3.2553,0.0164 -4.88086,0.0176 -35.57323,0.0255 -70.91591,-0.99866 -105.80273,-3.19531 l 0,22.3418 c 33.87768,1.17539 67.62559,1.74162 101.12695,1.75 z"
       style="opacity:0.09500002;fill:#48a1a6;fill-opacity:1;stroke:none;stroke-opacity:1" />
    <path
       id="path4564"
       d="m 219.64539,1054.3622 a 69.785757,69.785757 0 0 0 16.59792,-45.1595 69.785757,69.785757 0 0 0 -69.78576,-69.78579 69.785757,69.785757 0 0 0 -69.78575,69.78579 69.785757,69.785757 0 0 0 16.68431,45.1595 l 106.28928,0 z"
       style="opacity:0.065;fill:#4e6161;fill-opacity:1;stroke:none;stroke-opacity:1"
       inkscape:connector-curvature="0" />
    <path
       inkscape:connector-curvature="0"
       id="path4566"
       d="M 45.87612,1006.2353 A 107.36753,107.36753 0 0 0 150.2394,923.53995 c -48.80914,1.32441 -98.25991,0.59404 -147.99609,-2.49414 l 0,75.83399 a 107.36753,107.36753 0 0 0 43.63281,9.3555 z"
       style="opacity:0.065;fill:#979797;fill-opacity:1;fill-rule:evenodd;stroke:none;stroke-width:1px;stroke-linecap:butt;stroke-linejoin:miter;stroke-opacity:1" />
    <path
       id="path4568"
       d="m 107.67181,971.60874 c 38.41407,-0.041 76.49536,-1.73126 114.06608,-4.85882 a 69.785757,69.785757 0 0 0 -55.28034,-27.33301 69.785757,69.785757 0 0 0 -58.78574,32.19183 z"
       style="opacity:0.065;fill:url(#linearGradient4590);fill-opacity:1;stroke:none;stroke-opacity:1"
       inkscape:connector-curvature="0" />
    <circle
       r="8.5"
       cy="-943.91736"
       cx="-867.74329"
       id="circle4570"
       style="opacity:0.09500002;fill:#e3f2f3;fill-opacity:1;stroke:none;stroke-opacity:1"
       transform="scale(-1,-1)" />
    <circle
       style="opacity:0.09500002;fill:#e3f2f3;fill-opacity:1;stroke:none;stroke-opacity:1"
       id="circle4572"
       cx="-874.24329"
       cy="-904.4173"
       r="15"
       transform="scale(-1,-1)" />
    <circle
       r="14"
       cy="-956.4173"
       cx="-755.24329"
       id="circle4574"
       style="opacity:0.09500002;fill:#e3f2f3;fill-opacity:1;stroke:none;stroke-opacity:1"
       transform="scale(-1,-1)" />
    <circle
       r="72.343147"
       cy="-857.7605"
       cx="-591.90015"
       id="circle4576"
       style="opacity:0.09500002;fill:#eaeeee;fill-opacity:1;stroke:none;stroke-opacity:1"
       transform="scale(-1,-1)" />
    <circle
       style="opacity:0.09500002;fill:#eaeeee;fill-opacity:1;stroke:none;stroke-opacity:1"
       id="circle4578"
       cx="-520.24329"
       cy="-923.41736"
       r="42"
       transform="scale(-1,-1)" />
  </g>
</svg>
