<?xml version="1.0" encoding="UTF-8" standalone="no"?>
<!-- Created with Inkscape (http://www.inkscape.org/) -->

<svg
   xmlns:dc="http://purl.org/dc/elements/1.1/"
   xmlns:cc="http://creativecommons.org/ns#"
   xmlns:rdf="http://www.w3.org/1999/02/22-rdf-syntax-ns#"
   xmlns:svg="http://www.w3.org/2000/svg"
   xmlns="http://www.w3.org/2000/svg"
   xmlns:xlink="http://www.w3.org/1999/xlink"
   xmlns:sodipodi="http://sodipodi.sourceforge.net/DTD/sodipodi-0.dtd"
   xmlns:inkscape="http://www.inkscape.org/namespaces/inkscape"
   width="25.4cm"
   height="19.5cm"
   viewBox="0 0 899.9999 690.9449"
   id="svg4186"
   version="1.1"
   inkscape:version="0.91 r"
   sodipodi:docname="Calm Blue (isi).svg"
   inkscape:export-filename="/media/rizmut/Data MultiOS/Master/Perkantoran/LibreOffice/Impress/Palet/Dibuat oleh Rizmut/Calm Blue/Calm Blue (isi).png"
   inkscape:export-xdpi="90"
   inkscape:export-ydpi="90">
  <defs
     id="defs4188">
    <linearGradient
       inkscape:collect="always"
       id="linearGradient7219">
      <stop
         style="stop-color:#0b4157;stop-opacity:1;"
         offset="0"
         id="stop7221" />
      <stop
         style="stop-color:#157ea9;stop-opacity:1"
         offset="1"
         id="stop7223" />
    </linearGradient>
    <linearGradient
       inkscape:collect="always"
       id="linearGradient7197">
      <stop
         style="stop-color:#ffffff;stop-opacity:1"
         offset="0"
         id="stop7199" />
      <stop
         style="stop-color:#f7f7f7;stop-opacity:1"
         offset="1"
         id="stop7201" />
    </linearGradient>
    <linearGradient
       inkscape:collect="always"
       id="linearGradient7187">
      <stop
         style="stop-color:#0b4b65;stop-opacity:1"
         offset="0"
         id="stop7189" />
      <stop
         style="stop-color:#2fb3e7;stop-opacity:1"
         offset="1"
         id="stop7191" />
    </linearGradient>
    <linearGradient
       inkscape:collect="always"
       id="linearGradient4736">
      <stop
         style="stop-color:#0e5977;stop-opacity:1"
         offset="0"
         id="stop4738" />
      <stop
         style="stop-color:#33b4e6;stop-opacity:1"
         offset="1"
         id="stop4740" />
    </linearGradient>
    <linearGradient
       inkscape:collect="always"
       xlink:href="#linearGradient4736"
       id="linearGradient4742"
       x1="508.57138"
       y1="361.41559"
       x2="522.85706"
       y2="1052.3605"
       gradientUnits="userSpaceOnUse" />
    <linearGradient
       inkscape:collect="always"
       xlink:href="#linearGradient7187"
       id="linearGradient7193"
       x1="492.99155"
       y1="0"
       x2="524.22327"
       y2="690.94489"
       gradientUnits="userSpaceOnUse" />
    <radialGradient
       inkscape:collect="always"
       xlink:href="#linearGradient7197"
       id="radialGradient7203"
       cx="738.13855"
       cy="709.12885"
       fx="738.13855"
       fy="709.12885"
       r="91.395844"
       gradientTransform="matrix(8.0866445,0.0819456,-0.75719403,3.7761233,-5271.2016,-2023.2761)"
       gradientUnits="userSpaceOnUse" />
    <filter
       inkscape:collect="always"
       style="color-interpolation-filters:sRGB"
       id="filter7215"
       x="-0.011780284"
       width="1.0235606"
       y="-0.012228067"
       height="1.0244561">
      <feGaussianBlur
         inkscape:collect="always"
         stdDeviation="3.5203857"
         id="feGaussianBlur7217" />
    </filter>
    <linearGradient
       inkscape:collect="always"
       xlink:href="#linearGradient7219"
       id="linearGradient7225"
       x1="413.79483"
       y1="0"
       x2="420.59189"
       y2="690.94489"
       gradientUnits="userSpaceOnUse" />
    <filter
       inkscape:collect="always"
       style="color-interpolation-filters:sRGB"
       id="filter7227"
       x="-0.010599799"
       width="1.0211996"
       y="-0.013826429"
       height="1.0276529">
      <feGaussianBlur
         inkscape:collect="always"
         stdDeviation="3.9747607"
         id="feGaussianBlur7229" />
    </filter>
  </defs>
  <sodipodi:namedview
     id="base"
     pagecolor="#ffffff"
     bordercolor="#666666"
     borderopacity="1.0"
     inkscape:pageopacity="0.0"
     inkscape:pageshadow="2"
     inkscape:zoom="0.49497475"
     inkscape:cx="441.13048"
     inkscape:cy="410.35731"
     inkscape:document-units="px"
     inkscape:current-layer="layer1"
     showgrid="false"
     units="cm"
     inkscape:snap-page="true"
     inkscape:window-width="1366"
     inkscape:window-height="703"
     inkscape:window-x="0"
     inkscape:window-y="0"
     inkscape:window-maximized="1">
    <inkscape:grid
       type="xygrid"
       id="grid4746" />
  </sodipodi:namedview>
  <metadata
     id="metadata4191">
    <rdf:RDF>
      <cc:Work
         rdf:about="">
        <dc:format>image/svg+xml</dc:format>
        <dc:type
           rdf:resource="http://purl.org/dc/dcmitype/StillImage" />
        <dc:title></dc:title>
      </cc:Work>
    </rdf:RDF>
  </metadata>
  <g
     inkscape:label="Layer 1"
     inkscape:groupmode="layer"
     id="layer1"
     transform="translate(0,-361.4156)">
    <rect
       style="opacity:1;fill:url(#linearGradient4742);fill-opacity:1;stroke:none;stroke-opacity:1"
       id="rect4734"
       width="900"
       height="690.94489"
       x="-6.1035156e-05"
       y="361.41559" />
    <path
       style="opacity:1;fill:url(#linearGradient7193);fill-opacity:1;stroke:none;stroke-opacity:1;filter:url(#filter7227)"
       d="M 14.972656 1.0039062 L 0.037109375 15.939453 L 14.972656 30.873047 L 29.90625 15.939453 L 14.972656 1.0039062 z M 44.974609 1.0039062 L 30.039062 15.939453 L 44.974609 30.873047 L 59.908203 15.939453 L 44.974609 1.0039062 z M 74.978516 1.0039062 L 60.042969 15.939453 L 74.978516 30.873047 L 89.912109 15.939453 L 74.978516 1.0039062 z M 104.98242 1.0039062 L 90.046875 15.939453 L 104.98242 30.873047 L 119.91602 15.939453 L 104.98242 1.0039062 z M 134.98438 1.0039062 L 120.04883 15.939453 L 134.98438 30.873047 L 149.91797 15.939453 L 134.98438 1.0039062 z M 164.98828 1.0039062 L 150.05273 15.939453 L 164.98828 30.873047 L 179.92188 15.939453 L 164.98828 1.0039062 z M 194.99219 1.0039062 L 180.05664 15.939453 L 194.99219 30.873047 L 209.92578 15.939453 L 194.99219 1.0039062 z M 224.99414 1.0039062 L 210.05859 15.939453 L 224.99414 30.873047 L 239.92773 15.939453 L 224.99414 1.0039062 z M 254.99805 1.0039062 L 240.0625 15.939453 L 254.99805 30.873047 L 269.93164 15.939453 L 254.99805 1.0039062 z M 285.00195 1.0039062 L 270.06641 15.939453 L 285.00195 30.873047 L 299.93555 15.939453 L 285.00195 1.0039062 z M 315.00391 1.0039062 L 300.06836 15.939453 L 315.00391 30.873047 L 329.9375 15.939453 L 315.00391 1.0039062 z M 345.00781 1.0039062 L 330.07227 15.939453 L 345.00781 30.873047 L 359.94141 15.939453 L 345.00781 1.0039062 z M 375.01172 1.0039062 L 360.07617 15.9375 L 375.01172 30.873047 L 389.94531 15.9375 L 375.01172 1.0039062 z M 405.01367 1.0039062 L 390.07812 15.9375 L 405.01367 30.873047 L 419.94727 15.9375 L 405.01367 1.0039062 z M 435.01758 1.0039062 L 420.08203 15.9375 L 435.01758 30.873047 L 449.95117 15.9375 L 435.01758 1.0039062 z M 465.02148 1.0039062 L 450.08594 15.9375 L 465.02148 30.873047 L 479.95508 15.9375 L 465.02148 1.0039062 z M 495.02344 1.0039062 L 480.08789 15.9375 L 495.02344 30.873047 L 509.95703 15.9375 L 495.02344 1.0039062 z M 525.02734 1.0039062 L 510.0918 15.9375 L 525.02734 30.873047 L 539.96094 15.9375 L 525.02734 1.0039062 z M 555.03125 1.0039062 L 540.0957 15.9375 L 555.03125 30.873047 L 569.96484 15.9375 L 555.03125 1.0039062 z M 585.0332 1.0039062 L 570.09766 15.9375 L 585.0332 30.873047 L 599.9668 15.9375 L 585.0332 1.0039062 z M 615.03711 1.0039062 L 600.10156 15.9375 L 615.03711 30.873047 L 629.9707 15.9375 L 615.03711 1.0039062 z M 645.04102 1.0039062 L 630.10547 15.9375 L 645.04102 30.873047 L 659.97461 15.9375 L 645.04102 1.0039062 z M 675.04297 1.0039062 L 660.10742 15.9375 L 675.04297 30.873047 L 689.97656 15.9375 L 675.04297 1.0039062 z M 705.04688 1.0039062 L 690.11133 15.9375 L 705.04688 30.873047 L 719.98047 15.9375 L 705.04688 1.0039062 z M 735.05078 1.0039062 L 720.11523 15.9375 L 735.05078 30.873047 L 749.98438 15.9375 L 735.05078 1.0039062 z M 765.05273 1.0039062 L 750.11719 15.9375 L 765.05273 30.873047 L 779.98633 15.9375 L 765.05273 1.0039062 z M 795.05664 1.0039062 L 780.12109 15.9375 L 795.05664 30.873047 L 809.99023 15.9375 L 795.05664 1.0039062 z M 825.06055 1.0039062 L 810.125 15.9375 L 825.06055 30.873047 L 839.99414 15.9375 L 825.06055 1.0039062 z M 855.0625 1.0039062 L 840.12695 15.9375 L 855.0625 30.873047 L 869.99609 15.9375 L 855.0625 1.0039062 z M 885.06641 1.0039062 L 870.13086 15.9375 L 885.06641 30.873047 L 900 15.9375 L 885.06641 1.0039062 z M 14.972656 31.007812 L 0.037109375 45.943359 L 14.972656 60.876953 L 29.90625 45.943359 L 14.972656 31.007812 z M 44.974609 31.007812 L 30.039062 45.943359 L 44.974609 60.876953 L 59.908203 45.943359 L 44.974609 31.007812 z M 74.978516 31.007812 L 60.042969 45.943359 L 74.978516 60.876953 L 89.912109 45.943359 L 74.978516 31.007812 z M 104.98242 31.007812 L 90.046875 45.943359 L 104.98242 60.876953 L 119.91602 45.943359 L 104.98242 31.007812 z M 134.98438 31.007812 L 120.04883 45.943359 L 134.98438 60.876953 L 149.91797 45.943359 L 134.98438 31.007812 z M 164.98828 31.007812 L 150.05273 45.943359 L 164.98828 60.876953 L 179.92188 45.943359 L 164.98828 31.007812 z M 194.99219 31.007812 L 180.05664 45.943359 L 194.99219 60.876953 L 209.92578 45.943359 L 194.99219 31.007812 z M 224.99414 31.007812 L 210.05859 45.943359 L 224.99414 60.876953 L 239.92773 45.943359 L 224.99414 31.007812 z M 254.99805 31.007812 L 240.0625 45.943359 L 254.99805 60.876953 L 269.93164 45.943359 L 254.99805 31.007812 z M 285.00195 31.007812 L 270.06641 45.943359 L 285.00195 60.876953 L 299.93555 45.943359 L 285.00195 31.007812 z M 315.00391 31.007812 L 300.06836 45.943359 L 315.00391 60.876953 L 329.9375 45.943359 L 315.00391 31.007812 z M 345.00781 31.007812 L 330.07227 45.943359 L 345.00781 60.876953 L 359.94141 45.943359 L 345.00781 31.007812 z M 375.01172 31.007812 L 360.07617 45.943359 L 375.01172 60.876953 L 389.94531 45.943359 L 375.01172 31.007812 z M 405.01367 31.007812 L 390.07812 45.941406 L 405.01367 60.876953 L 419.94727 45.941406 L 405.01367 31.007812 z M 435.01758 31.007812 L 420.08203 45.941406 L 435.01758 60.876953 L 449.95117 45.941406 L 435.01758 31.007812 z M 465.02148 31.007812 L 450.08594 45.941406 L 465.02148 60.876953 L 479.95508 45.941406 L 465.02148 31.007812 z M 495.02344 31.007812 L 480.08789 45.941406 L 495.02344 60.876953 L 509.95703 45.941406 L 495.02344 31.007812 z M 525.02734 31.007812 L 510.0918 45.941406 L 525.02734 60.876953 L 539.96094 45.941406 L 525.02734 31.007812 z M 555.03125 31.007812 L 540.0957 45.941406 L 555.03125 60.876953 L 569.96484 45.941406 L 555.03125 31.007812 z M 585.0332 31.007812 L 570.09766 45.941406 L 585.0332 60.876953 L 599.9668 45.941406 L 585.0332 31.007812 z M 615.03711 31.007812 L 600.10156 45.941406 L 615.03711 60.876953 L 629.9707 45.941406 L 615.03711 31.007812 z M 645.04102 31.007812 L 630.10547 45.941406 L 645.04102 60.876953 L 659.97461 45.941406 L 645.04102 31.007812 z M 675.04297 31.007812 L 660.10742 45.941406 L 675.04297 60.876953 L 689.97656 45.941406 L 675.04297 31.007812 z M 705.04688 31.007812 L 690.11133 45.941406 L 705.04688 60.876953 L 719.98047 45.941406 L 705.04688 31.007812 z M 735.05078 31.007812 L 720.11523 45.941406 L 735.05078 60.876953 L 749.98438 45.941406 L 735.05078 31.007812 z M 765.05273 31.007812 L 750.11719 45.941406 L 765.05273 60.876953 L 779.98633 45.941406 L 765.05273 31.007812 z M 795.05664 31.007812 L 780.12109 45.941406 L 795.05664 60.876953 L 809.99023 45.941406 L 795.05664 31.007812 z M 825.06055 31.007812 L 810.125 45.941406 L 825.06055 60.876953 L 839.99414 45.941406 L 825.06055 31.007812 z M 855.0625 31.007812 L 840.12695 45.941406 L 855.0625 60.876953 L 869.99609 45.941406 L 855.0625 31.007812 z M 885.06641 31.007812 L 870.13086 45.941406 L 885.06641 60.876953 L 900 45.941406 L 885.06641 31.007812 z M 14.972656 61.011719 L 0.037109375 75.945312 L 14.972656 90.878906 L 29.90625 75.945312 L 14.972656 61.011719 z M 44.974609 61.011719 L 30.039062 75.945312 L 44.974609 90.878906 L 59.908203 75.945312 L 44.974609 61.011719 z M 74.978516 61.011719 L 60.042969 75.945312 L 74.978516 90.878906 L 89.912109 75.945312 L 74.978516 61.011719 z M 104.98242 61.011719 L 90.046875 75.945312 L 104.98242 90.878906 L 119.91602 75.945312 L 104.98242 61.011719 z M 134.98438 61.011719 L 120.04883 75.945312 L 134.98438 90.878906 L 149.91797 75.945312 L 134.98438 61.011719 z M 164.98828 61.011719 L 150.05273 75.945312 L 164.98828 90.878906 L 179.92188 75.945312 L 164.98828 61.011719 z M 194.99219 61.011719 L 180.05664 75.945312 L 194.99219 90.878906 L 209.92578 75.945312 L 194.99219 61.011719 z M 224.99414 61.011719 L 210.05859 75.945312 L 224.99414 90.878906 L 239.92773 75.945312 L 224.99414 61.011719 z M 254.99805 61.011719 L 240.0625 75.945312 L 254.99805 90.878906 L 269.93164 75.945312 L 254.99805 61.011719 z M 285.00195 61.011719 L 270.06641 75.945312 L 285.00195 90.878906 L 299.93555 75.945312 L 285.00195 61.011719 z M 315.00391 61.011719 L 300.06836 75.945312 L 315.00391 90.878906 L 329.9375 75.945312 L 315.00391 61.011719 z M 345.00781 61.011719 L 330.07227 75.945312 L 345.00781 90.878906 L 359.94141 75.945312 L 345.00781 61.011719 z M 375.01172 61.011719 L 360.07617 75.945312 L 375.01172 90.878906 L 389.94531 75.945312 L 375.01172 61.011719 z M 405.01367 61.011719 L 390.07812 75.945312 L 405.01367 90.878906 L 419.94727 75.945312 L 405.01367 61.011719 z M 435.01758 61.011719 L 420.08203 75.945312 L 435.01758 90.878906 L 449.95117 75.945312 L 435.01758 61.011719 z M 465.02148 61.011719 L 450.08594 75.945312 L 465.02148 90.878906 L 479.95508 75.945312 L 465.02148 61.011719 z M 495.02344 61.011719 L 480.08789 75.945312 L 495.02344 90.878906 L 509.95703 75.945312 L 495.02344 61.011719 z M 525.02734 61.011719 L 510.0918 75.945312 L 525.02734 90.878906 L 539.96094 75.945312 L 525.02734 61.011719 z M 555.03125 61.011719 L 540.0957 75.945312 L 555.03125 90.878906 L 569.96484 75.945312 L 555.03125 61.011719 z M 585.0332 61.011719 L 570.09766 75.945312 L 585.0332 90.878906 L 599.9668 75.945312 L 585.0332 61.011719 z M 615.03711 61.011719 L 600.10156 75.945312 L 615.03711 90.878906 L 629.9707 75.945312 L 615.03711 61.011719 z M 645.04102 61.011719 L 630.10547 75.945312 L 645.04102 90.878906 L 659.97461 75.945312 L 645.04102 61.011719 z M 675.04297 61.011719 L 660.10742 75.945312 L 675.04297 90.878906 L 689.97656 75.945312 L 675.04297 61.011719 z M 705.04688 61.011719 L 690.11133 75.945312 L 705.04688 90.878906 L 719.98047 75.945312 L 705.04688 61.011719 z M 735.05078 61.011719 L 720.11523 75.945312 L 735.05078 90.878906 L 749.98438 75.945312 L 735.05078 61.011719 z M 765.05273 61.011719 L 750.11719 75.945312 L 765.05273 90.878906 L 779.98633 75.945312 L 765.05273 61.011719 z M 795.05664 61.011719 L 780.12109 75.945312 L 795.05664 90.878906 L 809.99023 75.945312 L 795.05664 61.011719 z M 825.06055 61.011719 L 810.125 75.945312 L 825.06055 90.878906 L 839.99414 75.945312 L 825.06055 61.011719 z M 855.0625 61.011719 L 840.12695 75.945312 L 855.0625 90.878906 L 869.99609 75.945312 L 855.0625 61.011719 z M 885.06641 61.011719 L 870.13086 75.945312 L 885.06641 90.878906 L 900 75.945312 L 885.06641 61.011719 z M 14.972656 91.013672 L 0.037109375 105.94922 L 14.972656 120.88281 L 29.90625 105.94922 L 14.972656 91.013672 z M 44.974609 91.013672 L 30.039062 105.94922 L 44.974609 120.88281 L 59.908203 105.94922 L 44.974609 91.013672 z M 74.978516 91.013672 L 60.042969 105.94922 L 74.978516 120.88281 L 89.912109 105.94922 L 74.978516 91.013672 z M 104.98242 91.013672 L 90.046875 105.94922 L 104.98242 120.88281 L 119.91602 105.94922 L 104.98242 91.013672 z M 134.98438 91.013672 L 120.04883 105.94922 L 134.98438 120.88281 L 149.91797 105.94922 L 134.98438 91.013672 z M 164.98828 91.013672 L 150.05273 105.94922 L 164.98828 120.88281 L 179.92188 105.94922 L 164.98828 91.013672 z M 194.99219 91.013672 L 180.05664 105.94922 L 194.99219 120.88281 L 209.92578 105.94922 L 194.99219 91.013672 z M 224.99414 91.013672 L 210.05859 105.94922 L 224.99414 120.88281 L 239.92773 105.94922 L 224.99414 91.013672 z M 254.99805 91.013672 L 240.0625 105.94922 L 254.99805 120.88281 L 269.93164 105.94922 L 254.99805 91.013672 z M 285.00195 91.013672 L 270.06641 105.94922 L 285.00195 120.88281 L 299.93555 105.94922 L 285.00195 91.013672 z M 315.00391 91.013672 L 300.06836 105.94922 L 315.00391 120.88281 L 329.9375 105.94922 L 315.00391 91.013672 z M 345.00781 91.013672 L 330.07227 105.94922 L 345.00781 120.88281 L 359.94141 105.94922 L 345.00781 91.013672 z M 375.01172 91.013672 L 360.07617 105.94727 L 375.01172 120.88281 L 389.94531 105.94727 L 375.01172 91.013672 z M 405.01367 91.013672 L 390.07812 105.94727 L 405.01367 120.88281 L 419.94727 105.94727 L 405.01367 91.013672 z M 435.01758 91.013672 L 420.08203 105.94727 L 435.01758 120.88281 L 449.95117 105.94727 L 435.01758 91.013672 z M 465.02148 91.013672 L 450.08594 105.94727 L 465.02148 120.88281 L 479.95508 105.94727 L 465.02148 91.013672 z M 495.02344 91.013672 L 480.08789 105.94727 L 495.02344 120.88281 L 509.95703 105.94727 L 495.02344 91.013672 z M 525.02734 91.013672 L 510.0918 105.94727 L 525.02734 120.88281 L 539.96094 105.94727 L 525.02734 91.013672 z M 555.03125 91.013672 L 540.0957 105.94727 L 555.03125 120.88281 L 569.96484 105.94727 L 555.03125 91.013672 z M 585.0332 91.013672 L 570.09766 105.94727 L 585.0332 120.88281 L 599.9668 105.94727 L 585.0332 91.013672 z M 615.03711 91.013672 L 600.10156 105.94727 L 615.03711 120.88281 L 629.9707 105.94727 L 615.03711 91.013672 z M 645.04102 91.013672 L 630.10547 105.94727 L 645.04102 120.88281 L 659.97461 105.94727 L 645.04102 91.013672 z M 675.04297 91.013672 L 660.10742 105.94727 L 675.04297 120.88281 L 689.97656 105.94727 L 675.04297 91.013672 z M 705.04688 91.013672 L 690.11133 105.94727 L 705.04688 120.88281 L 719.98047 105.94727 L 705.04688 91.013672 z M 735.05078 91.013672 L 720.11523 105.94727 L 735.05078 120.88281 L 749.98438 105.94727 L 735.05078 91.013672 z M 765.05273 91.013672 L 750.11719 105.94727 L 765.05273 120.88281 L 779.98633 105.94727 L 765.05273 91.013672 z M 795.05664 91.013672 L 780.12109 105.94727 L 795.05664 120.88281 L 809.99023 105.94727 L 795.05664 91.013672 z M 825.06055 91.013672 L 810.125 105.94727 L 825.06055 120.88281 L 839.99414 105.94727 L 825.06055 91.013672 z M 855.0625 91.013672 L 840.12695 105.94727 L 855.0625 120.88281 L 869.99609 105.94727 L 855.0625 91.013672 z M 885.06641 91.013672 L 870.13086 105.94727 L 885.06641 120.88281 L 900 105.94727 L 885.06641 91.013672 z M 14.972656 121.01758 L 0.037109375 135.95312 L 14.972656 150.88672 L 29.90625 135.95312 L 14.972656 121.01758 z M 44.974609 121.01758 L 30.039062 135.95312 L 44.974609 150.88672 L 59.908203 135.95312 L 44.974609 121.01758 z M 74.978516 121.01758 L 60.042969 135.95312 L 74.978516 150.88672 L 89.912109 135.95312 L 74.978516 121.01758 z M 104.98242 121.01758 L 90.046875 135.95312 L 104.98242 150.88672 L 119.91602 135.95312 L 104.98242 121.01758 z M 134.98438 121.01758 L 120.04883 135.95312 L 134.98438 150.88672 L 149.91797 135.95312 L 134.98438 121.01758 z M 164.98828 121.01758 L 150.05273 135.95312 L 164.98828 150.88672 L 179.92188 135.95312 L 164.98828 121.01758 z M 194.99219 121.01758 L 180.05664 135.95312 L 194.99219 150.88672 L 209.92578 135.95312 L 194.99219 121.01758 z M 224.99414 121.01758 L 210.05859 135.95312 L 224.99414 150.88672 L 239.92773 135.95312 L 224.99414 121.01758 z M 254.99805 121.01758 L 240.0625 135.95312 L 254.99805 150.88672 L 269.93164 135.95312 L 254.99805 121.01758 z M 285.00195 121.01758 L 270.06641 135.95312 L 285.00195 150.88672 L 299.93555 135.95312 L 285.00195 121.01758 z M 315.00391 121.01758 L 300.06836 135.95312 L 315.00391 150.88672 L 329.9375 135.95312 L 315.00391 121.01758 z M 345.00781 121.01758 L 330.07227 135.95312 L 345.00781 150.88672 L 359.94141 135.95312 L 345.00781 121.01758 z M 375.01172 121.01758 L 360.07617 135.95312 L 375.01172 150.88672 L 389.94531 135.95312 L 375.01172 121.01758 z M 405.01367 121.01758 L 390.07812 135.95117 L 405.01367 150.88672 L 419.94727 135.95117 L 405.01367 121.01758 z M 435.01758 121.01758 L 420.08203 135.95117 L 435.01758 150.88672 L 449.95117 135.95117 L 435.01758 121.01758 z M 465.02148 121.01758 L 450.08594 135.95117 L 465.02148 150.88672 L 479.95508 135.95117 L 465.02148 121.01758 z M 495.02344 121.01758 L 480.08789 135.95117 L 495.02344 150.88672 L 509.95703 135.95117 L 495.02344 121.01758 z M 525.02734 121.01758 L 510.0918 135.95117 L 525.02734 150.88672 L 539.96094 135.95117 L 525.02734 121.01758 z M 555.03125 121.01758 L 540.0957 135.95117 L 555.03125 150.88672 L 569.96484 135.95117 L 555.03125 121.01758 z M 585.0332 121.01758 L 570.09766 135.95117 L 585.0332 150.88672 L 599.9668 135.95117 L 585.0332 121.01758 z M 615.03711 121.01758 L 600.10156 135.95117 L 615.03711 150.88672 L 629.9707 135.95117 L 615.03711 121.01758 z M 645.04102 121.01758 L 630.10547 135.95117 L 645.04102 150.88672 L 659.97461 135.95117 L 645.04102 121.01758 z M 675.04297 121.01758 L 660.10742 135.95117 L 675.04297 150.88672 L 689.97656 135.95117 L 675.04297 121.01758 z M 705.04688 121.01758 L 690.11133 135.95117 L 705.04688 150.88672 L 719.98047 135.95117 L 705.04688 121.01758 z M 735.05078 121.01758 L 720.11523 135.95117 L 735.05078 150.88672 L 749.98438 135.95117 L 735.05078 121.01758 z M 765.05273 121.01758 L 750.11719 135.95117 L 765.05273 150.88672 L 779.98633 135.95117 L 765.05273 121.01758 z M 795.05664 121.01758 L 780.12109 135.95117 L 795.05664 150.88672 L 809.99023 135.95117 L 795.05664 121.01758 z M 825.06055 121.01758 L 810.125 135.95117 L 825.06055 150.88672 L 839.99414 135.95117 L 825.06055 121.01758 z M 855.0625 121.01758 L 840.12695 135.95117 L 855.0625 150.88672 L 869.99609 135.95117 L 855.0625 121.01758 z M 885.06641 121.01758 L 870.13086 135.95117 L 885.06641 150.88672 L 900 135.95117 L 885.06641 121.01758 z M 14.972656 151.02148 L 0.037109375 165.95508 L 14.972656 180.88867 L 29.90625 165.95508 L 14.972656 151.02148 z M 44.974609 151.02148 L 30.039062 165.95508 L 44.974609 180.88867 L 59.908203 165.95508 L 44.974609 151.02148 z M 74.978516 151.02148 L 60.042969 165.95508 L 74.978516 180.88867 L 89.912109 165.95508 L 74.978516 151.02148 z M 104.98242 151.02148 L 90.046875 165.95508 L 104.98242 180.88867 L 119.91602 165.95508 L 104.98242 151.02148 z M 134.98438 151.02148 L 120.04883 165.95508 L 134.98438 180.88867 L 149.91797 165.95508 L 134.98438 151.02148 z M 164.98828 151.02148 L 150.05273 165.95508 L 164.98828 180.88867 L 179.92188 165.95508 L 164.98828 151.02148 z M 194.99219 151.02148 L 180.05664 165.95508 L 194.99219 180.88867 L 209.92578 165.95508 L 194.99219 151.02148 z M 224.99414 151.02148 L 210.05859 165.95508 L 224.99414 180.88867 L 239.92773 165.95508 L 224.99414 151.02148 z M 254.99805 151.02148 L 240.0625 165.95508 L 254.99805 180.88867 L 269.93164 165.95508 L 254.99805 151.02148 z M 285.00195 151.02148 L 270.06641 165.95508 L 285.00195 180.88867 L 299.93555 165.95508 L 285.00195 151.02148 z M 315.00391 151.02148 L 300.06836 165.95508 L 315.00391 180.88867 L 329.9375 165.95508 L 315.00391 151.02148 z M 345.00781 151.02148 L 330.07227 165.95508 L 345.00781 180.88867 L 359.94141 165.95508 L 345.00781 151.02148 z M 375.01172 151.02148 L 360.07617 165.95508 L 375.01172 180.88867 L 389.94531 165.95508 L 375.01172 151.02148 z M 405.01367 151.02148 L 390.07812 165.95508 L 405.01367 180.88867 L 419.94727 165.95508 L 405.01367 151.02148 z M 435.01758 151.02148 L 420.08203 165.95508 L 435.01758 180.88867 L 449.95117 165.95508 L 435.01758 151.02148 z M 465.02148 151.02148 L 450.08594 165.95508 L 465.02148 180.88867 L 479.95508 165.95508 L 465.02148 151.02148 z M 495.02344 151.02148 L 480.08789 165.95508 L 495.02344 180.88867 L 509.95703 165.95508 L 495.02344 151.02148 z M 525.02734 151.02148 L 510.0918 165.95508 L 525.02734 180.88867 L 539.96094 165.95508 L 525.02734 151.02148 z M 555.03125 151.02148 L 540.0957 165.95508 L 555.03125 180.88867 L 569.96484 165.95508 L 555.03125 151.02148 z M 585.0332 151.02148 L 570.09766 165.95508 L 585.0332 180.88867 L 599.9668 165.95508 L 585.0332 151.02148 z M 615.03711 151.02148 L 600.10156 165.95508 L 615.03711 180.88867 L 629.9707 165.95508 L 615.03711 151.02148 z M 645.04102 151.02148 L 630.10547 165.95508 L 645.04102 180.88867 L 659.97461 165.95508 L 645.04102 151.02148 z M 675.04297 151.02148 L 660.10742 165.95508 L 675.04297 180.88867 L 689.97656 165.95508 L 675.04297 151.02148 z M 705.04688 151.02148 L 690.11133 165.95508 L 705.04688 180.88867 L 719.98047 165.95508 L 705.04688 151.02148 z M 735.05078 151.02148 L 720.11523 165.95508 L 735.05078 180.88867 L 749.98438 165.95508 L 735.05078 151.02148 z M 765.05273 151.02148 L 750.11719 165.95508 L 765.05273 180.88867 L 779.98633 165.95508 L 765.05273 151.02148 z M 795.05664 151.02148 L 780.12109 165.95508 L 795.05664 180.88867 L 809.99023 165.95508 L 795.05664 151.02148 z M 825.06055 151.02148 L 810.125 165.95508 L 825.06055 180.88867 L 839.99414 165.95508 L 825.06055 151.02148 z M 855.0625 151.02148 L 840.12695 165.95508 L 855.0625 180.88867 L 869.99609 165.95508 L 855.0625 151.02148 z M 885.06641 151.02148 L 870.13086 165.95508 L 885.06641 180.88867 L 900 165.95508 L 885.06641 151.02148 z M 14.972656 181.02344 L 0.037109375 195.95898 L 14.972656 210.89258 L 29.90625 195.95898 L 14.972656 181.02344 z M 44.974609 181.02344 L 30.039062 195.95898 L 44.974609 210.89258 L 59.908203 195.95898 L 44.974609 181.02344 z M 74.978516 181.02344 L 60.042969 195.95898 L 74.978516 210.89258 L 89.912109 195.95898 L 74.978516 181.02344 z M 104.98242 181.02344 L 90.046875 195.95898 L 104.98242 210.89258 L 119.91602 195.95898 L 104.98242 181.02344 z M 134.98438 181.02344 L 120.04883 195.95898 L 134.98438 210.89258 L 149.91797 195.95898 L 134.98438 181.02344 z M 164.98828 181.02344 L 150.05273 195.95898 L 164.98828 210.89258 L 179.92188 195.95898 L 164.98828 181.02344 z M 194.99219 181.02344 L 180.05664 195.95898 L 194.99219 210.89258 L 209.92578 195.95898 L 194.99219 181.02344 z M 224.99414 181.02344 L 210.05859 195.95898 L 224.99414 210.89258 L 239.92773 195.95898 L 224.99414 181.02344 z M 254.99805 181.02344 L 240.0625 195.95898 L 254.99805 210.89258 L 269.93164 195.95898 L 254.99805 181.02344 z M 285.00195 181.02344 L 270.06641 195.95898 L 285.00195 210.89258 L 299.93555 195.95898 L 285.00195 181.02344 z M 315.00391 181.02344 L 300.06836 195.95898 L 315.00391 210.89258 L 329.9375 195.95898 L 315.00391 181.02344 z M 345.00781 181.02344 L 330.07227 195.95898 L 345.00781 210.89258 L 359.94141 195.95898 L 345.00781 181.02344 z M 375.01172 181.02344 L 360.07617 195.95703 L 375.01172 210.89258 L 389.94531 195.95703 L 375.01172 181.02344 z M 405.01367 181.02344 L 390.07812 195.95703 L 405.01367 210.89258 L 419.94727 195.95703 L 405.01367 181.02344 z M 435.01758 181.02344 L 420.08203 195.95703 L 435.01758 210.89258 L 449.95117 195.95703 L 435.01758 181.02344 z M 465.02148 181.02344 L 450.08594 195.95703 L 465.02148 210.89258 L 479.95508 195.95703 L 465.02148 181.02344 z M 495.02344 181.02344 L 480.08789 195.95703 L 495.02344 210.89258 L 509.95703 195.95703 L 495.02344 181.02344 z M 525.02734 181.02344 L 510.0918 195.95703 L 525.02734 210.89258 L 539.96094 195.95703 L 525.02734 181.02344 z M 555.03125 181.02344 L 540.0957 195.95703 L 555.03125 210.89258 L 569.96484 195.95703 L 555.03125 181.02344 z M 585.0332 181.02344 L 570.09766 195.95703 L 585.0332 210.89258 L 599.9668 195.95703 L 585.0332 181.02344 z M 615.03711 181.02344 L 600.10156 195.95703 L 615.03711 210.89258 L 629.9707 195.95703 L 615.03711 181.02344 z M 645.04102 181.02344 L 630.10547 195.95703 L 645.04102 210.89258 L 659.97461 195.95703 L 645.04102 181.02344 z M 675.04297 181.02344 L 660.10742 195.95703 L 675.04297 210.89258 L 689.97656 195.95703 L 675.04297 181.02344 z M 705.04688 181.02344 L 690.11133 195.95703 L 705.04688 210.89258 L 719.98047 195.95703 L 705.04688 181.02344 z M 735.05078 181.02344 L 720.11523 195.95703 L 735.05078 210.89258 L 749.98438 195.95703 L 735.05078 181.02344 z M 765.05273 181.02344 L 750.11719 195.95703 L 765.05273 210.89258 L 779.98633 195.95703 L 765.05273 181.02344 z M 795.05664 181.02344 L 780.12109 195.95703 L 795.05664 210.89258 L 809.99023 195.95703 L 795.05664 181.02344 z M 825.06055 181.02344 L 810.125 195.95703 L 825.06055 210.89258 L 839.99414 195.95703 L 825.06055 181.02344 z M 855.0625 181.02344 L 840.12695 195.95703 L 855.0625 210.89258 L 869.99609 195.95703 L 855.0625 181.02344 z M 885.06641 181.02344 L 870.13086 195.95703 L 885.06641 210.89258 L 900 195.95703 L 885.06641 181.02344 z M 14.972656 211.02734 L 0.037109375 225.96289 L 14.972656 240.89648 L 29.90625 225.96289 L 14.972656 211.02734 z M 44.974609 211.02734 L 30.039062 225.96289 L 44.974609 240.89648 L 59.908203 225.96289 L 44.974609 211.02734 z M 74.978516 211.02734 L 60.042969 225.96289 L 74.978516 240.89648 L 89.912109 225.96289 L 74.978516 211.02734 z M 104.98242 211.02734 L 90.046875 225.96289 L 104.98242 240.89648 L 119.91602 225.96289 L 104.98242 211.02734 z M 134.98438 211.02734 L 120.04883 225.96289 L 134.98438 240.89648 L 149.91797 225.96289 L 134.98438 211.02734 z M 164.98828 211.02734 L 150.05273 225.96289 L 164.98828 240.89648 L 179.92188 225.96289 L 164.98828 211.02734 z M 194.99219 211.02734 L 180.05664 225.96289 L 194.99219 240.89648 L 209.92578 225.96289 L 194.99219 211.02734 z M 224.99414 211.02734 L 210.05859 225.96289 L 224.99414 240.89648 L 239.92773 225.96289 L 224.99414 211.02734 z M 254.99805 211.02734 L 240.0625 225.96289 L 254.99805 240.89648 L 269.93164 225.96289 L 254.99805 211.02734 z M 285.00195 211.02734 L 270.06641 225.96289 L 285.00195 240.89648 L 299.93555 225.96289 L 285.00195 211.02734 z M 315.00391 211.02734 L 300.06836 225.96289 L 315.00391 240.89648 L 329.9375 225.96289 L 315.00391 211.02734 z M 345.00781 211.02734 L 330.07227 225.96289 L 345.00781 240.89648 L 359.94141 225.96289 L 345.00781 211.02734 z M 375.01172 211.02734 L 360.07617 225.96289 L 375.01172 240.89648 L 389.94531 225.96289 L 375.01172 211.02734 z M 405.01367 211.02734 L 390.07812 225.96094 L 405.01367 240.89648 L 419.94727 225.96094 L 405.01367 211.02734 z M 435.01758 211.02734 L 420.08203 225.96094 L 435.01758 240.89648 L 449.95117 225.96094 L 435.01758 211.02734 z M 465.02148 211.02734 L 450.08594 225.96094 L 465.02148 240.89648 L 479.95508 225.96094 L 465.02148 211.02734 z M 495.02344 211.02734 L 480.08789 225.96094 L 495.02344 240.89648 L 509.95703 225.96094 L 495.02344 211.02734 z M 525.02734 211.02734 L 510.0918 225.96094 L 525.02734 240.89648 L 539.96094 225.96094 L 525.02734 211.02734 z M 555.03125 211.02734 L 540.0957 225.96094 L 555.03125 240.89648 L 569.96484 225.96094 L 555.03125 211.02734 z M 585.0332 211.02734 L 570.09766 225.96094 L 585.0332 240.89648 L 599.9668 225.96094 L 585.0332 211.02734 z M 615.03711 211.02734 L 600.10156 225.96094 L 615.03711 240.89648 L 629.9707 225.96094 L 615.03711 211.02734 z M 645.04102 211.02734 L 630.10547 225.96094 L 645.04102 240.89648 L 659.97461 225.96094 L 645.04102 211.02734 z M 675.04297 211.02734 L 660.10742 225.96094 L 675.04297 240.89648 L 689.97656 225.96094 L 675.04297 211.02734 z M 705.04688 211.02734 L 690.11133 225.96094 L 705.04688 240.89648 L 719.98047 225.96094 L 705.04688 211.02734 z M 735.05078 211.02734 L 720.11523 225.96094 L 735.05078 240.89648 L 749.98438 225.96094 L 735.05078 211.02734 z M 765.05273 211.02734 L 750.11719 225.96094 L 765.05273 240.89648 L 779.98633 225.96094 L 765.05273 211.02734 z M 795.05664 211.02734 L 780.12109 225.96094 L 795.05664 240.89648 L 809.99023 225.96094 L 795.05664 211.02734 z M 825.06055 211.02734 L 810.125 225.96094 L 825.06055 240.89648 L 839.99414 225.96094 L 825.06055 211.02734 z M 855.0625 211.02734 L 840.12695 225.96094 L 855.0625 240.89648 L 869.99609 225.96094 L 855.0625 211.02734 z M 885.06641 211.02734 L 870.13086 225.96094 L 885.06641 240.89648 L 900 225.96094 L 885.06641 211.02734 z M 14.972656 241.0293 L 0.037109375 255.96484 L 14.972656 270.89844 L 29.90625 255.96484 L 14.972656 241.0293 z M 44.974609 241.0293 L 30.039062 255.96484 L 44.974609 270.89844 L 59.908203 255.96484 L 44.974609 241.0293 z M 74.978516 241.0293 L 60.042969 255.96484 L 74.978516 270.89844 L 89.912109 255.96484 L 74.978516 241.0293 z M 104.98242 241.0293 L 90.046875 255.96484 L 104.98242 270.89844 L 119.91602 255.96484 L 104.98242 241.0293 z M 134.98438 241.0293 L 120.04883 255.96484 L 134.98438 270.89844 L 149.91797 255.96484 L 134.98438 241.0293 z M 164.98828 241.0293 L 150.05273 255.96484 L 164.98828 270.89844 L 179.92188 255.96484 L 164.98828 241.0293 z M 194.99219 241.0293 L 180.05664 255.96484 L 194.99219 270.89844 L 209.92578 255.96484 L 194.99219 241.0293 z M 224.99414 241.0293 L 210.05859 255.96484 L 224.99414 270.89844 L 239.92773 255.96484 L 224.99414 241.0293 z M 254.99805 241.0293 L 240.0625 255.96484 L 254.99805 270.89844 L 269.93164 255.96484 L 254.99805 241.0293 z M 285.00195 241.0293 L 270.06641 255.96484 L 285.00195 270.89844 L 299.93555 255.96484 L 285.00195 241.0293 z M 315.00391 241.0293 L 300.06836 255.96484 L 315.00391 270.89844 L 329.9375 255.96484 L 315.00391 241.0293 z M 345.00781 241.0293 L 330.07227 255.96484 L 345.00781 270.89844 L 359.94141 255.96484 L 345.00781 241.0293 z M 375.01172 241.0293 L 360.07617 255.96484 L 375.01172 270.89844 L 389.94531 255.96484 L 375.01172 241.0293 z M 405.01367 241.0293 L 390.07812 255.96484 L 405.01367 270.89844 L 419.94727 255.96484 L 405.01367 241.0293 z M 435.01758 241.0293 L 420.08203 255.96484 L 435.01758 270.89844 L 449.95117 255.96484 L 435.01758 241.0293 z M 465.02148 241.0293 L 450.08594 255.96484 L 465.02148 270.89844 L 479.95508 255.96484 L 465.02148 241.0293 z M 495.02344 241.0293 L 480.08789 255.96484 L 495.02344 270.89844 L 509.95703 255.96484 L 495.02344 241.0293 z M 525.02734 241.0293 L 510.0918 255.96484 L 525.02734 270.89844 L 539.96094 255.96484 L 525.02734 241.0293 z M 555.03125 241.0293 L 540.0957 255.96484 L 555.03125 270.89844 L 569.96484 255.96484 L 555.03125 241.0293 z M 585.0332 241.0293 L 570.09766 255.96484 L 585.0332 270.89844 L 599.9668 255.96484 L 585.0332 241.0293 z M 615.03711 241.0293 L 600.10156 255.96484 L 615.03711 270.89844 L 629.9707 255.96484 L 615.03711 241.0293 z M 645.04102 241.0293 L 630.10547 255.96484 L 645.04102 270.89844 L 659.97461 255.96484 L 645.04102 241.0293 z M 675.04297 241.0293 L 660.10742 255.96484 L 675.04297 270.89844 L 689.97656 255.96484 L 675.04297 241.0293 z M 705.04688 241.0293 L 690.11133 255.96484 L 705.04688 270.89844 L 719.98047 255.96484 L 705.04688 241.0293 z M 735.05078 241.0293 L 720.11523 255.96484 L 735.05078 270.89844 L 749.98438 255.96484 L 735.05078 241.0293 z M 765.05273 241.0293 L 750.11719 255.96484 L 765.05273 270.89844 L 779.98633 255.96484 L 765.05273 241.0293 z M 795.05664 241.0293 L 780.12109 255.96484 L 795.05664 270.89844 L 809.99023 255.96484 L 795.05664 241.0293 z M 825.06055 241.0293 L 810.125 255.96484 L 825.06055 270.89844 L 839.99414 255.96484 L 825.06055 241.0293 z M 855.0625 241.0293 L 840.12695 255.96484 L 855.0625 270.89844 L 869.99609 255.96484 L 855.0625 241.0293 z M 885.06641 241.0293 L 870.13086 255.96484 L 885.06641 270.89844 L 900 255.96484 L 885.06641 241.0293 z M 14.972656 271.0332 L 0.037109375 285.96875 L 14.972656 300.90234 L 29.90625 285.96875 L 14.972656 271.0332 z M 44.974609 271.0332 L 30.039062 285.96875 L 44.974609 300.90234 L 59.908203 285.96875 L 44.974609 271.0332 z M 74.978516 271.0332 L 60.042969 285.96875 L 74.978516 300.90234 L 89.912109 285.96875 L 74.978516 271.0332 z M 104.98242 271.0332 L 90.046875 285.96875 L 104.98242 300.90234 L 119.91602 285.96875 L 104.98242 271.0332 z M 134.98438 271.0332 L 120.04883 285.96875 L 134.98438 300.90234 L 149.91797 285.96875 L 134.98438 271.0332 z M 164.98828 271.0332 L 150.05273 285.96875 L 164.98828 300.90234 L 179.92188 285.96875 L 164.98828 271.0332 z M 194.99219 271.0332 L 180.05664 285.96875 L 194.99219 300.90234 L 209.92578 285.96875 L 194.99219 271.0332 z M 224.99414 271.0332 L 210.05859 285.96875 L 224.99414 300.90234 L 239.92773 285.96875 L 224.99414 271.0332 z M 254.99805 271.0332 L 240.0625 285.96875 L 254.99805 300.90234 L 269.93164 285.96875 L 254.99805 271.0332 z M 285.00195 271.0332 L 270.06641 285.96875 L 285.00195 300.90234 L 299.93555 285.96875 L 285.00195 271.0332 z M 315.00391 271.0332 L 300.06836 285.96875 L 315.00391 300.90234 L 329.9375 285.96875 L 315.00391 271.0332 z M 345.00781 271.0332 L 330.07227 285.96875 L 345.00781 300.90234 L 359.94141 285.96875 L 345.00781 271.0332 z M 375.01172 271.0332 L 360.07617 285.96875 L 375.01172 300.90234 L 389.94531 285.96875 L 375.01172 271.0332 z M 405.01367 271.0332 L 390.07812 285.9668 L 405.01367 300.90234 L 419.94727 285.9668 L 405.01367 271.0332 z M 435.01758 271.0332 L 420.08203 285.9668 L 435.01758 300.90234 L 449.95117 285.9668 L 435.01758 271.0332 z M 465.02148 271.0332 L 450.08594 285.9668 L 465.02148 300.90234 L 479.95508 285.9668 L 465.02148 271.0332 z M 495.02344 271.0332 L 480.08789 285.9668 L 495.02344 300.90234 L 509.95703 285.9668 L 495.02344 271.0332 z M 525.02734 271.0332 L 510.0918 285.9668 L 525.02734 300.90234 L 539.96094 285.9668 L 525.02734 271.0332 z M 555.03125 271.0332 L 540.0957 285.9668 L 555.03125 300.90234 L 569.96484 285.9668 L 555.03125 271.0332 z M 585.0332 271.0332 L 570.09766 285.9668 L 585.0332 300.90234 L 599.9668 285.9668 L 585.0332 271.0332 z M 615.03711 271.0332 L 600.10156 285.9668 L 615.03711 300.90234 L 629.9707 285.9668 L 615.03711 271.0332 z M 645.04102 271.0332 L 630.10547 285.9668 L 645.04102 300.90234 L 659.97461 285.9668 L 645.04102 271.0332 z M 675.04297 271.0332 L 660.10742 285.9668 L 675.04297 300.90234 L 689.97656 285.9668 L 675.04297 271.0332 z M 705.04688 271.0332 L 690.11133 285.9668 L 705.04688 300.90234 L 719.98047 285.9668 L 705.04688 271.0332 z M 735.05078 271.0332 L 720.11523 285.9668 L 735.05078 300.90234 L 749.98438 285.9668 L 735.05078 271.0332 z M 765.05273 271.0332 L 750.11719 285.9668 L 765.05273 300.90234 L 779.98633 285.9668 L 765.05273 271.0332 z M 795.05664 271.0332 L 780.12109 285.9668 L 795.05664 300.90234 L 809.99023 285.9668 L 795.05664 271.0332 z M 825.06055 271.0332 L 810.125 285.9668 L 825.06055 300.90234 L 839.99414 285.9668 L 825.06055 271.0332 z M 855.0625 271.0332 L 840.12695 285.9668 L 855.0625 300.90234 L 869.99609 285.9668 L 855.0625 271.0332 z M 885.06641 271.0332 L 870.13086 285.9668 L 885.06641 300.90234 L 900 285.9668 L 885.06641 271.0332 z M 14.972656 301.03711 L 0.037109375 315.97266 L 14.972656 330.90625 L 29.90625 315.97266 L 14.972656 301.03711 z M 44.974609 301.03711 L 30.039062 315.97266 L 44.974609 330.90625 L 59.908203 315.97266 L 44.974609 301.03711 z M 74.978516 301.03711 L 60.042969 315.97266 L 74.978516 330.90625 L 89.912109 315.97266 L 74.978516 301.03711 z M 104.98242 301.03711 L 90.046875 315.97266 L 104.98242 330.90625 L 119.91602 315.97266 L 104.98242 301.03711 z M 134.98438 301.03711 L 120.04883 315.97266 L 134.98438 330.90625 L 149.91797 315.97266 L 134.98438 301.03711 z M 164.98828 301.03711 L 150.05273 315.97266 L 164.98828 330.90625 L 179.92188 315.97266 L 164.98828 301.03711 z M 194.99219 301.03711 L 180.05664 315.97266 L 194.99219 330.90625 L 209.92578 315.97266 L 194.99219 301.03711 z M 224.99414 301.03711 L 210.05859 315.97266 L 224.99414 330.90625 L 239.92773 315.97266 L 224.99414 301.03711 z M 254.99805 301.03711 L 240.0625 315.97266 L 254.99805 330.90625 L 269.93164 315.97266 L 254.99805 301.03711 z M 285.00195 301.03711 L 270.06641 315.97266 L 285.00195 330.90625 L 299.93555 315.97266 L 285.00195 301.03711 z M 315.00391 301.03711 L 300.06836 315.97266 L 315.00391 330.90625 L 329.9375 315.97266 L 315.00391 301.03711 z M 345.00781 301.03711 L 330.07227 315.97266 L 345.00781 330.90625 L 359.94141 315.97266 L 345.00781 301.03711 z M 375.01172 301.03711 L 360.07617 315.97266 L 375.01172 330.90625 L 389.94531 315.97266 L 375.01172 301.03711 z M 405.01367 301.03711 L 390.07812 315.9707 L 405.01367 330.90625 L 419.94727 315.9707 L 405.01367 301.03711 z M 435.01758 301.03711 L 420.08203 315.9707 L 435.01758 330.90625 L 449.95117 315.9707 L 435.01758 301.03711 z M 465.02148 301.03711 L 450.08594 315.9707 L 465.02148 330.90625 L 479.95508 315.9707 L 465.02148 301.03711 z M 495.02344 301.03711 L 480.08789 315.9707 L 495.02344 330.90625 L 509.95703 315.9707 L 495.02344 301.03711 z M 525.02734 301.03711 L 510.0918 315.9707 L 525.02734 330.90625 L 539.96094 315.9707 L 525.02734 301.03711 z M 555.03125 301.03711 L 540.0957 315.9707 L 555.03125 330.90625 L 569.96484 315.9707 L 555.03125 301.03711 z M 585.0332 301.03711 L 570.09766 315.9707 L 585.0332 330.90625 L 599.9668 315.9707 L 585.0332 301.03711 z M 615.03711 301.03711 L 600.10156 315.9707 L 615.03711 330.90625 L 629.9707 315.9707 L 615.03711 301.03711 z M 645.04102 301.03711 L 630.10547 315.9707 L 645.04102 330.90625 L 659.97461 315.9707 L 645.04102 301.03711 z M 675.04297 301.03711 L 660.10742 315.9707 L 675.04297 330.90625 L 689.97656 315.9707 L 675.04297 301.03711 z M 705.04688 301.03711 L 690.11133 315.9707 L 705.04688 330.90625 L 719.98047 315.9707 L 705.04688 301.03711 z M 735.05078 301.03711 L 720.11523 315.9707 L 735.05078 330.90625 L 749.98438 315.9707 L 735.05078 301.03711 z M 765.05273 301.03711 L 750.11719 315.9707 L 765.05273 330.90625 L 779.98633 315.9707 L 765.05273 301.03711 z M 795.05664 301.03711 L 780.12109 315.9707 L 795.05664 330.90625 L 809.99023 315.9707 L 795.05664 301.03711 z M 825.06055 301.03711 L 810.125 315.9707 L 825.06055 330.90625 L 839.99414 315.9707 L 825.06055 301.03711 z M 855.0625 301.03711 L 840.12695 315.9707 L 855.0625 330.90625 L 869.99609 315.9707 L 855.0625 301.03711 z M 885.06641 301.03711 L 870.13086 315.9707 L 885.06641 330.90625 L 900 315.9707 L 885.06641 301.03711 z M 14.972656 331.03906 L 0.037109375 345.97461 L 14.972656 360.9082 L 29.90625 345.97461 L 14.972656 331.03906 z M 44.974609 331.03906 L 30.039062 345.97461 L 44.974609 360.9082 L 59.908203 345.97461 L 44.974609 331.03906 z M 74.978516 331.03906 L 60.042969 345.97461 L 74.978516 360.9082 L 89.912109 345.97461 L 74.978516 331.03906 z M 104.98242 331.03906 L 90.046875 345.97461 L 104.98242 360.9082 L 119.91602 345.97461 L 104.98242 331.03906 z M 134.98438 331.03906 L 120.04883 345.97461 L 134.98438 360.9082 L 149.91797 345.97461 L 134.98438 331.03906 z M 164.98828 331.03906 L 150.05273 345.97461 L 164.98828 360.9082 L 179.92188 345.97461 L 164.98828 331.03906 z M 194.99219 331.03906 L 180.05664 345.97461 L 194.99219 360.9082 L 209.92578 345.97461 L 194.99219 331.03906 z M 224.99414 331.03906 L 210.05859 345.97461 L 224.99414 360.9082 L 239.92773 345.97461 L 224.99414 331.03906 z M 254.99805 331.03906 L 240.0625 345.97461 L 254.99805 360.9082 L 269.93164 345.97461 L 254.99805 331.03906 z M 285.00195 331.03906 L 270.06641 345.97461 L 285.00195 360.9082 L 299.93555 345.97461 L 285.00195 331.03906 z M 315.00391 331.03906 L 300.06836 345.97461 L 315.00391 360.9082 L 329.9375 345.97461 L 315.00391 331.03906 z M 345.00781 331.03906 L 330.07227 345.97461 L 345.00781 360.9082 L 359.94141 345.97461 L 345.00781 331.03906 z M 375.01172 331.03906 L 360.07617 345.97461 L 375.01172 360.9082 L 389.94531 345.97461 L 375.01172 331.03906 z M 405.01367 331.03906 L 390.07812 345.97461 L 405.01367 360.9082 L 419.94727 345.97461 L 405.01367 331.03906 z M 435.01758 331.03906 L 420.08203 345.97461 L 435.01758 360.9082 L 449.95117 345.97461 L 435.01758 331.03906 z M 465.02148 331.03906 L 450.08594 345.97461 L 465.02148 360.9082 L 479.95508 345.97461 L 465.02148 331.03906 z M 495.02344 331.03906 L 480.08789 345.97461 L 495.02344 360.9082 L 509.95703 345.97461 L 495.02344 331.03906 z M 525.02734 331.03906 L 510.0918 345.97461 L 525.02734 360.9082 L 539.96094 345.97461 L 525.02734 331.03906 z M 555.03125 331.03906 L 540.0957 345.97461 L 555.03125 360.9082 L 569.96484 345.97461 L 555.03125 331.03906 z M 585.0332 331.03906 L 570.09766 345.97461 L 585.0332 360.9082 L 599.9668 345.97461 L 585.0332 331.03906 z M 615.03711 331.03906 L 600.10156 345.97461 L 615.03711 360.9082 L 629.9707 345.97461 L 615.03711 331.03906 z M 645.04102 331.03906 L 630.10547 345.97461 L 645.04102 360.9082 L 659.97461 345.97461 L 645.04102 331.03906 z M 675.04297 331.03906 L 660.10742 345.97461 L 675.04297 360.9082 L 689.97656 345.97461 L 675.04297 331.03906 z M 705.04688 331.03906 L 690.11133 345.97461 L 705.04688 360.9082 L 719.98047 345.97461 L 705.04688 331.03906 z M 735.05078 331.03906 L 720.11523 345.97461 L 735.05078 360.9082 L 749.98438 345.97461 L 735.05078 331.03906 z M 765.05273 331.03906 L 750.11719 345.97461 L 765.05273 360.9082 L 779.98633 345.97461 L 765.05273 331.03906 z M 795.05664 331.03906 L 780.12109 345.97461 L 795.05664 360.9082 L 809.99023 345.97461 L 795.05664 331.03906 z M 825.06055 331.03906 L 810.125 345.97461 L 825.06055 360.9082 L 839.99414 345.97461 L 825.06055 331.03906 z M 855.0625 331.03906 L 840.12695 345.97461 L 855.0625 360.9082 L 869.99609 345.97461 L 855.0625 331.03906 z M 885.06641 331.03906 L 870.13086 345.97461 L 885.06641 360.9082 L 900 345.97461 L 885.06641 331.03906 z M 14.972656 361.04297 L 0.037109375 375.97852 L 14.972656 390.91211 L 29.90625 375.97852 L 14.972656 361.04297 z M 44.974609 361.04297 L 30.039062 375.97852 L 44.974609 390.91211 L 59.908203 375.97852 L 44.974609 361.04297 z M 74.978516 361.04297 L 60.042969 375.97852 L 74.978516 390.91211 L 89.912109 375.97852 L 74.978516 361.04297 z M 104.98242 361.04297 L 90.046875 375.97852 L 104.98242 390.91211 L 119.91602 375.97852 L 104.98242 361.04297 z M 134.98438 361.04297 L 120.04883 375.97852 L 134.98438 390.91211 L 149.91797 375.97852 L 134.98438 361.04297 z M 164.98828 361.04297 L 150.05273 375.97852 L 164.98828 390.91211 L 179.92188 375.97852 L 164.98828 361.04297 z M 194.99219 361.04297 L 180.05664 375.97852 L 194.99219 390.91211 L 209.92578 375.97852 L 194.99219 361.04297 z M 224.99414 361.04297 L 210.05859 375.97852 L 224.99414 390.91211 L 239.92773 375.97852 L 224.99414 361.04297 z M 254.99805 361.04297 L 240.0625 375.97852 L 254.99805 390.91211 L 269.93164 375.97852 L 254.99805 361.04297 z M 285.00195 361.04297 L 270.06641 375.97852 L 285.00195 390.91211 L 299.93555 375.97852 L 285.00195 361.04297 z M 315.00391 361.04297 L 300.06836 375.97852 L 315.00391 390.91211 L 329.9375 375.97852 L 315.00391 361.04297 z M 345.00781 361.04297 L 330.07227 375.97852 L 345.00781 390.91211 L 359.94141 375.97852 L 345.00781 361.04297 z M 375.01172 361.04297 L 360.07617 375.97852 L 375.01172 390.91211 L 389.94531 375.97852 L 375.01172 361.04297 z M 405.01367 361.04297 L 390.07812 375.97852 L 405.01367 390.91211 L 419.94727 375.97852 L 405.01367 361.04297 z M 435.01758 361.04297 L 420.08203 375.97852 L 435.01758 390.91211 L 449.95117 375.97852 L 435.01758 361.04297 z M 465.02148 361.04297 L 450.08594 375.97656 L 465.02148 390.91211 L 479.95508 375.97656 L 465.02148 361.04297 z M 495.02344 361.04297 L 480.08789 375.97656 L 495.02344 390.91211 L 509.95703 375.97656 L 495.02344 361.04297 z M 525.02734 361.04297 L 510.0918 375.97656 L 525.02734 390.91211 L 539.96094 375.97656 L 525.02734 361.04297 z M 555.03125 361.04297 L 540.0957 375.97656 L 555.03125 390.91211 L 569.96484 375.97656 L 555.03125 361.04297 z M 585.0332 361.04297 L 570.09766 375.97656 L 585.0332 390.91211 L 599.9668 375.97656 L 585.0332 361.04297 z M 615.03711 361.04297 L 600.10156 375.97656 L 615.03711 390.91211 L 629.9707 375.97656 L 615.03711 361.04297 z M 645.04102 361.04297 L 630.10547 375.97656 L 645.04102 390.91211 L 659.97461 375.97656 L 645.04102 361.04297 z M 675.04297 361.04297 L 660.10742 375.97656 L 675.04297 390.91211 L 689.97656 375.97656 L 675.04297 361.04297 z M 705.04688 361.04297 L 690.11133 375.97656 L 705.04688 390.91211 L 719.98047 375.97656 L 705.04688 361.04297 z M 735.05078 361.04297 L 720.11523 375.97656 L 735.05078 390.91211 L 749.98438 375.97656 L 735.05078 361.04297 z M 765.05273 361.04297 L 750.11719 375.97656 L 765.05273 390.91211 L 779.98633 375.97656 L 765.05273 361.04297 z M 795.05664 361.04297 L 780.12109 375.97656 L 795.05664 390.91211 L 809.99023 375.97656 L 795.05664 361.04297 z M 825.06055 361.04297 L 810.125 375.97656 L 825.06055 390.91211 L 839.99414 375.97656 L 825.06055 361.04297 z M 855.0625 361.04297 L 840.12695 375.97656 L 855.0625 390.91211 L 869.99609 375.97656 L 855.0625 361.04297 z M 885.06641 361.04297 L 870.13086 375.97656 L 885.06641 390.91211 L 900 375.97656 L 885.06641 361.04297 z M 14.972656 391.04688 L 0.037109375 405.98242 L 14.972656 420.91602 L 29.90625 405.98242 L 14.972656 391.04688 z M 44.974609 391.04688 L 30.039062 405.98242 L 44.974609 420.91602 L 59.908203 405.98242 L 44.974609 391.04688 z M 74.978516 391.04688 L 60.042969 405.98242 L 74.978516 420.91602 L 89.912109 405.98242 L 74.978516 391.04688 z M 104.98242 391.04688 L 90.046875 405.98242 L 104.98242 420.91602 L 119.91602 405.98242 L 104.98242 391.04688 z M 134.98438 391.04688 L 120.04883 405.98242 L 134.98438 420.91602 L 149.91797 405.98242 L 134.98438 391.04688 z M 164.98828 391.04688 L 150.05273 405.98242 L 164.98828 420.91602 L 179.92188 405.98242 L 164.98828 391.04688 z M 194.99219 391.04688 L 180.05664 405.98242 L 194.99219 420.91602 L 209.92578 405.98242 L 194.99219 391.04688 z M 224.99414 391.04688 L 210.05859 405.98242 L 224.99414 420.91602 L 239.92773 405.98242 L 224.99414 391.04688 z M 254.99805 391.04688 L 240.0625 405.98242 L 254.99805 420.91602 L 269.93164 405.98242 L 254.99805 391.04688 z M 285.00195 391.04688 L 270.06641 405.98242 L 285.00195 420.91602 L 299.93555 405.98242 L 285.00195 391.04688 z M 315.00391 391.04688 L 300.06836 405.98242 L 315.00391 420.91602 L 329.9375 405.98242 L 315.00391 391.04688 z M 345.00781 391.04688 L 330.07227 405.98242 L 345.00781 420.91602 L 359.94141 405.98242 L 345.00781 391.04688 z M 375.01172 391.04688 L 360.07617 405.98242 L 375.01172 420.91602 L 389.94531 405.98242 L 375.01172 391.04688 z M 405.01367 391.04688 L 390.07812 405.98047 L 405.01367 420.91602 L 419.94727 405.98047 L 405.01367 391.04688 z M 435.01758 391.04688 L 420.08203 405.98047 L 435.01758 420.91602 L 449.95117 405.98047 L 435.01758 391.04688 z M 465.02148 391.04688 L 450.08594 405.98047 L 465.02148 420.91602 L 479.95508 405.98047 L 465.02148 391.04688 z M 495.02344 391.04688 L 480.08789 405.98047 L 495.02344 420.91602 L 509.95703 405.98047 L 495.02344 391.04688 z M 525.02734 391.04688 L 510.0918 405.98047 L 525.02734 420.91602 L 539.96094 405.98047 L 525.02734 391.04688 z M 555.03125 391.04688 L 540.0957 405.98047 L 555.03125 420.91602 L 569.96484 405.98047 L 555.03125 391.04688 z M 585.0332 391.04688 L 570.09766 405.98047 L 585.0332 420.91602 L 599.9668 405.98047 L 585.0332 391.04688 z M 615.03711 391.04688 L 600.10156 405.98047 L 615.03711 420.91602 L 629.9707 405.98047 L 615.03711 391.04688 z M 645.04102 391.04688 L 630.10547 405.98047 L 645.04102 420.91602 L 659.97461 405.98047 L 645.04102 391.04688 z M 675.04297 391.04688 L 660.10742 405.98047 L 675.04297 420.91602 L 689.97656 405.98047 L 675.04297 391.04688 z M 705.04688 391.04688 L 690.11133 405.98047 L 705.04688 420.91602 L 719.98047 405.98047 L 705.04688 391.04688 z M 735.05078 391.04688 L 720.11523 405.98047 L 735.05078 420.91602 L 749.98438 405.98047 L 735.05078 391.04688 z M 765.05273 391.04688 L 750.11719 405.98047 L 765.05273 420.91602 L 779.98633 405.98047 L 765.05273 391.04688 z M 795.05664 391.04688 L 780.12109 405.98047 L 795.05664 420.91602 L 809.99023 405.98047 L 795.05664 391.04688 z M 825.06055 391.04688 L 810.125 405.98047 L 825.06055 420.91602 L 839.99414 405.98047 L 825.06055 391.04688 z M 855.0625 391.04688 L 840.12695 405.98047 L 855.0625 420.91602 L 869.99609 405.98047 L 855.0625 391.04688 z M 885.06641 391.04688 L 870.13086 405.98047 L 885.06641 420.91602 L 900 405.98047 L 885.06641 391.04688 z M 14.972656 421.04883 L 0.037109375 435.98438 L 14.972656 450.91797 L 29.90625 435.98438 L 14.972656 421.04883 z M 44.974609 421.04883 L 30.039062 435.98438 L 44.974609 450.91797 L 59.908203 435.98438 L 44.974609 421.04883 z M 74.978516 421.04883 L 60.042969 435.98438 L 74.978516 450.91797 L 89.912109 435.98438 L 74.978516 421.04883 z M 104.98242 421.04883 L 90.046875 435.98438 L 104.98242 450.91797 L 119.91602 435.98438 L 104.98242 421.04883 z M 134.98438 421.04883 L 120.04883 435.98438 L 134.98438 450.91797 L 149.91797 435.98438 L 134.98438 421.04883 z M 164.98828 421.04883 L 150.05273 435.98438 L 164.98828 450.91797 L 179.92188 435.98438 L 164.98828 421.04883 z M 194.99219 421.04883 L 180.05664 435.98438 L 194.99219 450.91797 L 209.92578 435.98438 L 194.99219 421.04883 z M 224.99414 421.04883 L 210.05859 435.98438 L 224.99414 450.91797 L 239.92773 435.98438 L 224.99414 421.04883 z M 254.99805 421.04883 L 240.0625 435.98438 L 254.99805 450.91797 L 269.93164 435.98438 L 254.99805 421.04883 z M 285.00195 421.04883 L 270.06641 435.98438 L 285.00195 450.91797 L 299.93555 435.98438 L 285.00195 421.04883 z M 315.00391 421.04883 L 300.06836 435.98438 L 315.00391 450.91797 L 329.9375 435.98438 L 315.00391 421.04883 z M 345.00781 421.04883 L 330.07227 435.98438 L 345.00781 450.91797 L 359.94141 435.98438 L 345.00781 421.04883 z M 375.01172 421.04883 L 360.07617 435.98438 L 375.01172 450.91797 L 389.94531 435.98438 L 375.01172 421.04883 z M 405.01367 421.04883 L 390.07812 435.98438 L 405.01367 450.91797 L 419.94727 435.98438 L 405.01367 421.04883 z M 435.01758 421.04883 L 420.08203 435.98438 L 435.01758 450.91797 L 449.95117 435.98438 L 435.01758 421.04883 z M 465.02148 421.04883 L 450.08594 435.98438 L 465.02148 450.91797 L 479.95508 435.98438 L 465.02148 421.04883 z M 495.02344 421.04883 L 480.08789 435.98438 L 495.02344 450.91797 L 509.95703 435.98438 L 495.02344 421.04883 z M 525.02734 421.04883 L 510.0918 435.98438 L 525.02734 450.91797 L 539.96094 435.98438 L 525.02734 421.04883 z M 555.03125 421.04883 L 540.0957 435.98438 L 555.03125 450.91797 L 569.96484 435.98438 L 555.03125 421.04883 z M 585.0332 421.04883 L 570.09766 435.98438 L 585.0332 450.91797 L 599.9668 435.98438 L 585.0332 421.04883 z M 615.03711 421.04883 L 600.10156 435.98438 L 615.03711 450.91797 L 629.9707 435.98438 L 615.03711 421.04883 z M 645.04102 421.04883 L 630.10547 435.98438 L 645.04102 450.91797 L 659.97461 435.98438 L 645.04102 421.04883 z M 675.04297 421.04883 L 660.10742 435.98438 L 675.04297 450.91797 L 689.97656 435.98438 L 675.04297 421.04883 z M 705.04688 421.04883 L 690.11133 435.98438 L 705.04688 450.91797 L 719.98047 435.98438 L 705.04688 421.04883 z M 735.05078 421.04883 L 720.11523 435.98438 L 735.05078 450.91797 L 749.98438 435.98438 L 735.05078 421.04883 z M 765.05273 421.04883 L 750.11719 435.98438 L 765.05273 450.91797 L 779.98633 435.98438 L 765.05273 421.04883 z M 795.05664 421.04883 L 780.12109 435.98438 L 795.05664 450.91797 L 809.99023 435.98438 L 795.05664 421.04883 z M 825.06055 421.04883 L 810.125 435.98438 L 825.06055 450.91797 L 839.99414 435.98438 L 825.06055 421.04883 z M 855.0625 421.04883 L 840.12695 435.98438 L 855.0625 450.91797 L 869.99609 435.98438 L 855.0625 421.04883 z M 885.06641 421.04883 L 870.13086 435.98438 L 885.06641 450.91797 L 900 435.98438 L 885.06641 421.04883 z M 14.972656 451.05273 L 0.037109375 465.98828 L 14.972656 480.92188 L 29.90625 465.98828 L 14.972656 451.05273 z M 44.974609 451.05273 L 30.039062 465.98828 L 44.974609 480.92188 L 59.908203 465.98828 L 44.974609 451.05273 z M 74.978516 451.05273 L 60.042969 465.98828 L 74.978516 480.92188 L 89.912109 465.98828 L 74.978516 451.05273 z M 104.98242 451.05273 L 90.046875 465.98828 L 104.98242 480.92188 L 119.91602 465.98828 L 104.98242 451.05273 z M 134.98438 451.05273 L 120.04883 465.98828 L 134.98438 480.92188 L 149.91797 465.98828 L 134.98438 451.05273 z M 164.98828 451.05273 L 150.05273 465.98828 L 164.98828 480.92188 L 179.92188 465.98828 L 164.98828 451.05273 z M 194.99219 451.05273 L 180.05664 465.98828 L 194.99219 480.92188 L 209.92578 465.98828 L 194.99219 451.05273 z M 224.99414 451.05273 L 210.05859 465.98828 L 224.99414 480.92188 L 239.92773 465.98828 L 224.99414 451.05273 z M 254.99805 451.05273 L 240.0625 465.98828 L 254.99805 480.92188 L 269.93164 465.98828 L 254.99805 451.05273 z M 285.00195 451.05273 L 270.06641 465.98828 L 285.00195 480.92188 L 299.93555 465.98828 L 285.00195 451.05273 z M 315.00391 451.05273 L 300.06836 465.98828 L 315.00391 480.92188 L 329.9375 465.98828 L 315.00391 451.05273 z M 345.00781 451.05273 L 330.07227 465.98828 L 345.00781 480.92188 L 359.94141 465.98828 L 345.00781 451.05273 z M 375.01172 451.05273 L 360.07617 465.98828 L 375.01172 480.92188 L 389.94531 465.98828 L 375.01172 451.05273 z M 405.01367 451.05273 L 390.07812 465.98828 L 405.01367 480.92188 L 419.94727 465.98828 L 405.01367 451.05273 z M 435.01758 451.05273 L 420.08203 465.98828 L 435.01758 480.92188 L 449.95117 465.98828 L 435.01758 451.05273 z M 465.02148 451.05273 L 450.08594 465.98633 L 465.02148 480.92188 L 479.95508 465.98633 L 465.02148 451.05273 z M 495.02344 451.05273 L 480.08789 465.98633 L 495.02344 480.92188 L 509.95703 465.98633 L 495.02344 451.05273 z M 525.02734 451.05273 L 510.0918 465.98633 L 525.02734 480.92188 L 539.96094 465.98633 L 525.02734 451.05273 z M 555.03125 451.05273 L 540.0957 465.98633 L 555.03125 480.92188 L 569.96484 465.98633 L 555.03125 451.05273 z M 585.0332 451.05273 L 570.09766 465.98633 L 585.0332 480.92188 L 599.9668 465.98633 L 585.0332 451.05273 z M 615.03711 451.05273 L 600.10156 465.98633 L 615.03711 480.92188 L 629.9707 465.98633 L 615.03711 451.05273 z M 645.04102 451.05273 L 630.10547 465.98633 L 645.04102 480.92188 L 659.97461 465.98633 L 645.04102 451.05273 z M 675.04297 451.05273 L 660.10742 465.98633 L 675.04297 480.92188 L 689.97656 465.98633 L 675.04297 451.05273 z M 705.04688 451.05273 L 690.11133 465.98633 L 705.04688 480.92188 L 719.98047 465.98633 L 705.04688 451.05273 z M 735.05078 451.05273 L 720.11523 465.98633 L 735.05078 480.92188 L 749.98438 465.98633 L 735.05078 451.05273 z M 765.05273 451.05273 L 750.11719 465.98633 L 765.05273 480.92188 L 779.98633 465.98633 L 765.05273 451.05273 z M 795.05664 451.05273 L 780.12109 465.98633 L 795.05664 480.92188 L 809.99023 465.98633 L 795.05664 451.05273 z M 825.06055 451.05273 L 810.125 465.98633 L 825.06055 480.92188 L 839.99414 465.98633 L 825.06055 451.05273 z M 855.0625 451.05273 L 840.12695 465.98633 L 855.0625 480.92188 L 869.99609 465.98633 L 855.0625 451.05273 z M 885.06641 451.05273 L 870.13086 465.98633 L 885.06641 480.92188 L 900 465.98633 L 885.06641 451.05273 z M 14.972656 481.05664 L 0.037109375 495.99219 L 14.972656 510.92578 L 29.90625 495.99219 L 14.972656 481.05664 z M 44.974609 481.05664 L 30.039062 495.99219 L 44.974609 510.92578 L 59.908203 495.99219 L 44.974609 481.05664 z M 74.978516 481.05664 L 60.042969 495.99219 L 74.978516 510.92578 L 89.912109 495.99219 L 74.978516 481.05664 z M 104.98242 481.05664 L 90.046875 495.99219 L 104.98242 510.92578 L 119.91602 495.99219 L 104.98242 481.05664 z M 134.98438 481.05664 L 120.04883 495.99219 L 134.98438 510.92578 L 149.91797 495.99219 L 134.98438 481.05664 z M 164.98828 481.05664 L 150.05273 495.99219 L 164.98828 510.92578 L 179.92188 495.99219 L 164.98828 481.05664 z M 194.99219 481.05664 L 180.05664 495.99219 L 194.99219 510.92578 L 209.92578 495.99219 L 194.99219 481.05664 z M 224.99414 481.05664 L 210.05859 495.99219 L 224.99414 510.92578 L 239.92773 495.99219 L 224.99414 481.05664 z M 254.99805 481.05664 L 240.0625 495.99219 L 254.99805 510.92578 L 269.93164 495.99219 L 254.99805 481.05664 z M 285.00195 481.05664 L 270.06641 495.99219 L 285.00195 510.92578 L 299.93555 495.99219 L 285.00195 481.05664 z M 315.00391 481.05664 L 300.06836 495.99219 L 315.00391 510.92578 L 329.9375 495.99219 L 315.00391 481.05664 z M 345.00781 481.05664 L 330.07227 495.99219 L 345.00781 510.92578 L 359.94141 495.99219 L 345.00781 481.05664 z M 375.01172 481.05664 L 360.07617 495.99023 L 375.01172 510.92578 L 389.94531 495.99023 L 375.01172 481.05664 z M 405.01367 481.05664 L 390.07812 495.99023 L 405.01367 510.92578 L 419.94727 495.99023 L 405.01367 481.05664 z M 435.01758 481.05664 L 420.08203 495.99023 L 435.01758 510.92578 L 449.95117 495.99023 L 435.01758 481.05664 z M 465.02148 481.05664 L 450.08594 495.99023 L 465.02148 510.92578 L 479.95508 495.99023 L 465.02148 481.05664 z M 495.02344 481.05664 L 480.08789 495.99023 L 495.02344 510.92578 L 509.95703 495.99023 L 495.02344 481.05664 z M 525.02734 481.05664 L 510.0918 495.99023 L 525.02734 510.92578 L 539.96094 495.99023 L 525.02734 481.05664 z M 555.03125 481.05664 L 540.0957 495.99023 L 555.03125 510.92578 L 569.96484 495.99023 L 555.03125 481.05664 z M 585.0332 481.05664 L 570.09766 495.99023 L 585.0332 510.92578 L 599.9668 495.99023 L 585.0332 481.05664 z M 615.03711 481.05664 L 600.10156 495.99023 L 615.03711 510.92578 L 629.9707 495.99023 L 615.03711 481.05664 z M 645.04102 481.05664 L 630.10547 495.99023 L 645.04102 510.92578 L 659.97461 495.99023 L 645.04102 481.05664 z M 675.04297 481.05664 L 660.10742 495.99023 L 675.04297 510.92578 L 689.97656 495.99023 L 675.04297 481.05664 z M 705.04688 481.05664 L 690.11133 495.99023 L 705.04688 510.92578 L 719.98047 495.99023 L 705.04688 481.05664 z M 735.05078 481.05664 L 720.11523 495.99023 L 735.05078 510.92578 L 749.98438 495.99023 L 735.05078 481.05664 z M 765.05273 481.05664 L 750.11719 495.99023 L 765.05273 510.92578 L 779.98633 495.99023 L 765.05273 481.05664 z M 795.05664 481.05664 L 780.12109 495.99023 L 795.05664 510.92578 L 809.99023 495.99023 L 795.05664 481.05664 z M 825.06055 481.05664 L 810.125 495.99023 L 825.06055 510.92578 L 839.99414 495.99023 L 825.06055 481.05664 z M 855.0625 481.05664 L 840.12695 495.99023 L 855.0625 510.92578 L 869.99609 495.99023 L 855.0625 481.05664 z M 885.06641 481.05664 L 870.13086 495.99023 L 885.06641 510.92578 L 900 495.99023 L 885.06641 481.05664 z M 14.972656 511.05859 L 0.037109375 525.99414 L 14.972656 540.92773 L 29.90625 525.99414 L 14.972656 511.05859 z M 44.974609 511.05859 L 30.039062 525.99414 L 44.974609 540.92773 L 59.908203 525.99414 L 44.974609 511.05859 z M 74.978516 511.05859 L 60.042969 525.99414 L 74.978516 540.92773 L 89.912109 525.99414 L 74.978516 511.05859 z M 104.98242 511.05859 L 90.046875 525.99414 L 104.98242 540.92773 L 119.91602 525.99414 L 104.98242 511.05859 z M 134.98438 511.05859 L 120.04883 525.99414 L 134.98438 540.92773 L 149.91797 525.99414 L 134.98438 511.05859 z M 164.98828 511.05859 L 150.05273 525.99414 L 164.98828 540.92773 L 179.92188 525.99414 L 164.98828 511.05859 z M 194.99219 511.05859 L 180.05664 525.99414 L 194.99219 540.92773 L 209.92578 525.99414 L 194.99219 511.05859 z M 224.99414 511.05859 L 210.05859 525.99414 L 224.99414 540.92773 L 239.92773 525.99414 L 224.99414 511.05859 z M 254.99805 511.05859 L 240.0625 525.99414 L 254.99805 540.92773 L 269.93164 525.99414 L 254.99805 511.05859 z M 285.00195 511.05859 L 270.06641 525.99414 L 285.00195 540.92773 L 299.93555 525.99414 L 285.00195 511.05859 z M 315.00391 511.05859 L 300.06836 525.99414 L 315.00391 540.92773 L 329.9375 525.99414 L 315.00391 511.05859 z M 345.00781 511.05859 L 330.07227 525.99414 L 345.00781 540.92773 L 359.94141 525.99414 L 345.00781 511.05859 z M 375.01172 511.05859 L 360.07617 525.99414 L 375.01172 540.92773 L 389.94531 525.99414 L 375.01172 511.05859 z M 405.01367 511.05859 L 390.07812 525.99414 L 405.01367 540.92773 L 419.94727 525.99414 L 405.01367 511.05859 z M 435.01758 511.05859 L 420.08203 525.99414 L 435.01758 540.92773 L 449.95117 525.99414 L 435.01758 511.05859 z M 465.02148 511.05859 L 450.08594 525.99414 L 465.02148 540.92773 L 479.95508 525.99414 L 465.02148 511.05859 z M 495.02344 511.05859 L 480.08789 525.99414 L 495.02344 540.92773 L 509.95703 525.99414 L 495.02344 511.05859 z M 525.02734 511.05859 L 510.0918 525.99414 L 525.02734 540.92773 L 539.96094 525.99414 L 525.02734 511.05859 z M 555.03125 511.05859 L 540.0957 525.99414 L 555.03125 540.92773 L 569.96484 525.99414 L 555.03125 511.05859 z M 585.0332 511.05859 L 570.09766 525.99414 L 585.0332 540.92773 L 599.9668 525.99414 L 585.0332 511.05859 z M 615.03711 511.05859 L 600.10156 525.99414 L 615.03711 540.92773 L 629.9707 525.99414 L 615.03711 511.05859 z M 645.04102 511.05859 L 630.10547 525.99414 L 645.04102 540.92773 L 659.97461 525.99414 L 645.04102 511.05859 z M 675.04297 511.05859 L 660.10742 525.99414 L 675.04297 540.92773 L 689.97656 525.99414 L 675.04297 511.05859 z M 705.04688 511.05859 L 690.11133 525.99414 L 705.04688 540.92773 L 719.98047 525.99414 L 705.04688 511.05859 z M 735.05078 511.05859 L 720.11523 525.99414 L 735.05078 540.92773 L 749.98438 525.99414 L 735.05078 511.05859 z M 765.05273 511.05859 L 750.11719 525.99414 L 765.05273 540.92773 L 779.98633 525.99414 L 765.05273 511.05859 z M 795.05664 511.05859 L 780.12109 525.99414 L 795.05664 540.92773 L 809.99023 525.99414 L 795.05664 511.05859 z M 825.06055 511.05859 L 810.125 525.99414 L 825.06055 540.92773 L 839.99414 525.99414 L 825.06055 511.05859 z M 855.0625 511.05859 L 840.12695 525.99414 L 855.0625 540.92773 L 869.99609 525.99414 L 855.0625 511.05859 z M 885.06641 511.05859 L 870.13086 525.99414 L 885.06641 540.92773 L 900 525.99414 L 885.06641 511.05859 z M 14.972656 541.0625 L 0.037109375 555.99805 L 14.972656 570.93164 L 29.90625 555.99805 L 14.972656 541.0625 z M 44.974609 541.0625 L 30.039062 555.99805 L 44.974609 570.93164 L 59.908203 555.99805 L 44.974609 541.0625 z M 74.978516 541.0625 L 60.042969 555.99805 L 74.978516 570.93164 L 89.912109 555.99805 L 74.978516 541.0625 z M 104.98242 541.0625 L 90.046875 555.99805 L 104.98242 570.93164 L 119.91602 555.99805 L 104.98242 541.0625 z M 134.98438 541.0625 L 120.04883 555.99805 L 134.98438 570.93164 L 149.91797 555.99805 L 134.98438 541.0625 z M 164.98828 541.0625 L 150.05273 555.99805 L 164.98828 570.93164 L 179.92188 555.99805 L 164.98828 541.0625 z M 194.99219 541.0625 L 180.05664 555.99805 L 194.99219 570.93164 L 209.92578 555.99805 L 194.99219 541.0625 z M 224.99414 541.0625 L 210.05859 555.99805 L 224.99414 570.93164 L 239.92773 555.99805 L 224.99414 541.0625 z M 254.99805 541.0625 L 240.0625 555.99805 L 254.99805 570.93164 L 269.93164 555.99805 L 254.99805 541.0625 z M 285.00195 541.0625 L 270.06641 555.99805 L 285.00195 570.93164 L 299.93555 555.99805 L 285.00195 541.0625 z M 315.00391 541.0625 L 300.06836 555.99805 L 315.00391 570.93164 L 329.9375 555.99805 L 315.00391 541.0625 z M 345.00781 541.0625 L 330.07227 555.99805 L 345.00781 570.93164 L 359.94141 555.99805 L 345.00781 541.0625 z M 375.01172 541.0625 L 360.07617 555.99805 L 375.01172 570.93164 L 389.94531 555.99805 L 375.01172 541.0625 z M 405.01367 541.0625 L 390.07812 555.99609 L 405.01367 570.93164 L 419.94727 555.99609 L 405.01367 541.0625 z M 435.01758 541.0625 L 420.08203 555.99609 L 435.01758 570.93164 L 449.95117 555.99609 L 435.01758 541.0625 z M 465.02148 541.0625 L 450.08594 555.99609 L 465.02148 570.93164 L 479.95508 555.99609 L 465.02148 541.0625 z M 495.02344 541.0625 L 480.08789 555.99609 L 495.02344 570.93164 L 509.95703 555.99609 L 495.02344 541.0625 z M 525.02734 541.0625 L 510.0918 555.99609 L 525.02734 570.93164 L 539.96094 555.99609 L 525.02734 541.0625 z M 555.03125 541.0625 L 540.0957 555.99609 L 555.03125 570.93164 L 569.96484 555.99609 L 555.03125 541.0625 z M 585.0332 541.0625 L 570.09766 555.99609 L 585.0332 570.93164 L 599.9668 555.99609 L 585.0332 541.0625 z M 615.03711 541.0625 L 600.10156 555.99609 L 615.03711 570.93164 L 629.9707 555.99609 L 615.03711 541.0625 z M 645.04102 541.0625 L 630.10547 555.99609 L 645.04102 570.93164 L 659.97461 555.99609 L 645.04102 541.0625 z M 675.04297 541.0625 L 660.10742 555.99609 L 675.04297 570.93164 L 689.97656 555.99609 L 675.04297 541.0625 z M 705.04688 541.0625 L 690.11133 555.99609 L 705.04688 570.93164 L 719.98047 555.99609 L 705.04688 541.0625 z M 735.05078 541.0625 L 720.11523 555.99609 L 735.05078 570.93164 L 749.98438 555.99609 L 735.05078 541.0625 z M 765.05273 541.0625 L 750.11719 555.99609 L 765.05273 570.93164 L 779.98633 555.99609 L 765.05273 541.0625 z M 795.05664 541.0625 L 780.12109 555.99609 L 795.05664 570.93164 L 809.99023 555.99609 L 795.05664 541.0625 z M 825.06055 541.0625 L 810.125 555.99609 L 825.06055 570.93164 L 839.99414 555.99609 L 825.06055 541.0625 z M 855.0625 541.0625 L 840.12695 555.99609 L 855.0625 570.93164 L 869.99609 555.99609 L 855.0625 541.0625 z M 885.06641 541.0625 L 870.13086 555.99609 L 885.06641 570.93164 L 900 555.99609 L 885.06641 541.0625 z M 14.972656 571.06641 L 0.037109375 586.00195 L 14.972656 600.93555 L 29.90625 586.00195 L 14.972656 571.06641 z M 44.974609 571.06641 L 30.039062 586.00195 L 44.974609 600.93555 L 59.908203 586.00195 L 44.974609 571.06641 z M 74.978516 571.06641 L 60.042969 586.00195 L 74.978516 600.93555 L 89.912109 586.00195 L 74.978516 571.06641 z M 104.98242 571.06641 L 90.046875 586.00195 L 104.98242 600.93555 L 119.91602 586.00195 L 104.98242 571.06641 z M 134.98438 571.06641 L 120.04883 586.00195 L 134.98438 600.93555 L 149.91797 586.00195 L 134.98438 571.06641 z M 164.98828 571.06641 L 150.05273 586.00195 L 164.98828 600.93555 L 179.92188 586.00195 L 164.98828 571.06641 z M 194.99219 571.06641 L 180.05664 586.00195 L 194.99219 600.93555 L 209.92578 586.00195 L 194.99219 571.06641 z M 224.99414 571.06641 L 210.05859 586.00195 L 224.99414 600.93555 L 239.92773 586.00195 L 224.99414 571.06641 z M 254.99805 571.06641 L 240.0625 586.00195 L 254.99805 600.93555 L 269.93164 586.00195 L 254.99805 571.06641 z M 285.00195 571.06641 L 270.06641 586.00195 L 285.00195 600.93555 L 299.93555 586.00195 L 285.00195 571.06641 z M 315.00391 571.06641 L 300.06836 586.00195 L 315.00391 600.93555 L 329.9375 586.00195 L 315.00391 571.06641 z M 345.00781 571.06641 L 330.07227 586.00195 L 345.00781 600.93555 L 359.94141 586.00195 L 345.00781 571.06641 z M 375.01172 571.06641 L 360.07617 586.00195 L 375.01172 600.93555 L 389.94531 586.00195 L 375.01172 571.06641 z M 405.01367 571.06641 L 390.07812 586 L 405.01367 600.93555 L 419.94727 586 L 405.01367 571.06641 z M 435.01758 571.06641 L 420.08203 586 L 435.01758 600.93555 L 449.95117 586 L 435.01758 571.06641 z M 465.02148 571.06641 L 450.08594 586 L 465.02148 600.93555 L 479.95508 586 L 465.02148 571.06641 z M 495.02344 571.06641 L 480.08789 586 L 495.02344 600.93555 L 509.95703 586 L 495.02344 571.06641 z M 525.02734 571.06641 L 510.0918 586 L 525.02734 600.93555 L 539.96094 586 L 525.02734 571.06641 z M 555.03125 571.06641 L 540.0957 586 L 555.03125 600.93555 L 569.96484 586 L 555.03125 571.06641 z M 585.0332 571.06641 L 570.09766 586 L 585.0332 600.93555 L 599.9668 586 L 585.0332 571.06641 z M 615.03711 571.06641 L 600.10156 586 L 615.03711 600.93555 L 629.9707 586 L 615.03711 571.06641 z M 645.04102 571.06641 L 630.10547 586 L 645.04102 600.93555 L 659.97461 586 L 645.04102 571.06641 z M 675.04297 571.06641 L 660.10742 586 L 675.04297 600.93555 L 689.97656 586 L 675.04297 571.06641 z M 705.04688 571.06641 L 690.11133 586 L 705.04688 600.93555 L 719.98047 586 L 705.04688 571.06641 z M 735.05078 571.06641 L 720.11523 586 L 735.05078 600.93555 L 749.98438 586 L 735.05078 571.06641 z M 765.05273 571.06641 L 750.11719 586 L 765.05273 600.93555 L 779.98633 586 L 765.05273 571.06641 z M 795.05664 571.06641 L 780.12109 586 L 795.05664 600.93555 L 809.99023 586 L 795.05664 571.06641 z M 825.06055 571.06641 L 810.125 586 L 825.06055 600.93555 L 839.99414 586 L 825.06055 571.06641 z M 855.0625 571.06641 L 840.12695 586 L 855.0625 600.93555 L 869.99609 586 L 855.0625 571.06641 z M 885.06641 571.06641 L 870.13086 586 L 885.06641 600.93555 L 900 586 L 885.06641 571.06641 z M 14.972656 601.06836 L 0.037109375 616.00391 L 14.972656 630.9375 L 29.90625 616.00391 L 14.972656 601.06836 z M 44.974609 601.06836 L 30.039062 616.00391 L 44.974609 630.9375 L 59.908203 616.00391 L 44.974609 601.06836 z M 74.978516 601.06836 L 60.042969 616.00391 L 74.978516 630.9375 L 89.912109 616.00391 L 74.978516 601.06836 z M 104.98242 601.06836 L 90.046875 616.00391 L 104.98242 630.9375 L 119.91602 616.00391 L 104.98242 601.06836 z M 134.98438 601.06836 L 120.04883 616.00391 L 134.98438 630.9375 L 149.91797 616.00391 L 134.98438 601.06836 z M 164.98828 601.06836 L 150.05273 616.00391 L 164.98828 630.9375 L 179.92188 616.00391 L 164.98828 601.06836 z M 194.99219 601.06836 L 180.05664 616.00391 L 194.99219 630.9375 L 209.92578 616.00391 L 194.99219 601.06836 z M 224.99414 601.06836 L 210.05859 616.00391 L 224.99414 630.9375 L 239.92773 616.00391 L 224.99414 601.06836 z M 254.99805 601.06836 L 240.0625 616.00391 L 254.99805 630.9375 L 269.93164 616.00391 L 254.99805 601.06836 z M 285.00195 601.06836 L 270.06641 616.00391 L 285.00195 630.9375 L 299.93555 616.00391 L 285.00195 601.06836 z M 315.00391 601.06836 L 300.06836 616.00391 L 315.00391 630.9375 L 329.9375 616.00391 L 315.00391 601.06836 z M 345.00781 601.06836 L 330.07227 616.00391 L 345.00781 630.9375 L 359.94141 616.00391 L 345.00781 601.06836 z M 375.01172 601.06836 L 360.07617 616.00391 L 375.01172 630.9375 L 389.94531 616.00391 L 375.01172 601.06836 z M 405.01367 601.06836 L 390.07812 616.00391 L 405.01367 630.9375 L 419.94727 616.00391 L 405.01367 601.06836 z M 435.01758 601.06836 L 420.08203 616.00391 L 435.01758 630.9375 L 449.95117 616.00391 L 435.01758 601.06836 z M 465.02148 601.06836 L 450.08594 616.00391 L 465.02148 630.9375 L 479.95508 616.00391 L 465.02148 601.06836 z M 495.02344 601.06836 L 480.08789 616.00391 L 495.02344 630.9375 L 509.95703 616.00391 L 495.02344 601.06836 z M 525.02734 601.06836 L 510.0918 616.00391 L 525.02734 630.9375 L 539.96094 616.00391 L 525.02734 601.06836 z M 555.03125 601.06836 L 540.0957 616.00391 L 555.03125 630.9375 L 569.96484 616.00391 L 555.03125 601.06836 z M 585.0332 601.06836 L 570.09766 616.00391 L 585.0332 630.9375 L 599.9668 616.00391 L 585.0332 601.06836 z M 615.03711 601.06836 L 600.10156 616.00391 L 615.03711 630.9375 L 629.9707 616.00391 L 615.03711 601.06836 z M 645.04102 601.06836 L 630.10547 616.00391 L 645.04102 630.9375 L 659.97461 616.00391 L 645.04102 601.06836 z M 675.04297 601.06836 L 660.10742 616.00391 L 675.04297 630.9375 L 689.97656 616.00391 L 675.04297 601.06836 z M 705.04688 601.06836 L 690.11133 616.00391 L 705.04688 630.9375 L 719.98047 616.00391 L 705.04688 601.06836 z M 735.05078 601.06836 L 720.11523 616.00391 L 735.05078 630.9375 L 749.98438 616.00391 L 735.05078 601.06836 z M 765.05273 601.06836 L 750.11719 616.00391 L 765.05273 630.9375 L 779.98633 616.00391 L 765.05273 601.06836 z M 795.05664 601.06836 L 780.12109 616.00391 L 795.05664 630.9375 L 809.99023 616.00391 L 795.05664 601.06836 z M 825.06055 601.06836 L 810.125 616.00391 L 825.06055 630.9375 L 839.99414 616.00391 L 825.06055 601.06836 z M 855.0625 601.06836 L 840.12695 616.00391 L 855.0625 630.9375 L 869.99609 616.00391 L 855.0625 601.06836 z M 885.06641 601.06836 L 870.13086 616.00391 L 885.06641 630.9375 L 900 616.00391 L 885.06641 601.06836 z M 14.972656 631.07227 L 0.037109375 646.00781 L 14.972656 660.94141 L 29.90625 646.00781 L 14.972656 631.07227 z M 44.974609 631.07227 L 30.039062 646.00781 L 44.974609 660.94141 L 59.908203 646.00781 L 44.974609 631.07227 z M 74.978516 631.07227 L 60.042969 646.00781 L 74.978516 660.94141 L 89.912109 646.00781 L 74.978516 631.07227 z M 104.98242 631.07227 L 90.046875 646.00781 L 104.98242 660.94141 L 119.91602 646.00781 L 104.98242 631.07227 z M 134.98438 631.07227 L 120.04883 646.00781 L 134.98438 660.94141 L 149.91797 646.00781 L 134.98438 631.07227 z M 164.98828 631.07227 L 150.05273 646.00781 L 164.98828 660.94141 L 179.92188 646.00781 L 164.98828 631.07227 z M 194.99219 631.07227 L 180.05664 646.00781 L 194.99219 660.94141 L 209.92578 646.00781 L 194.99219 631.07227 z M 224.99414 631.07227 L 210.05859 646.00781 L 224.99414 660.94141 L 239.92773 646.00781 L 224.99414 631.07227 z M 254.99805 631.07227 L 240.0625 646.00781 L 254.99805 660.94141 L 269.93164 646.00781 L 254.99805 631.07227 z M 285.00195 631.07227 L 270.06641 646.00781 L 285.00195 660.94141 L 299.93555 646.00781 L 285.00195 631.07227 z M 315.00391 631.07227 L 300.06836 646.00781 L 315.00391 660.94141 L 329.9375 646.00781 L 315.00391 631.07227 z M 345.00781 631.07227 L 330.07227 646.00781 L 345.00781 660.94141 L 359.94141 646.00781 L 345.00781 631.07227 z M 375.01172 631.07227 L 360.07617 646.00781 L 375.01172 660.94141 L 389.94531 646.00781 L 375.01172 631.07227 z M 405.01367 631.07227 L 390.07812 646.00586 L 405.01367 660.94141 L 419.94727 646.00586 L 405.01367 631.07227 z M 435.01758 631.07227 L 420.08203 646.00586 L 435.01758 660.94141 L 449.95117 646.00586 L 435.01758 631.07227 z M 465.02148 631.07227 L 450.08594 646.00586 L 465.02148 660.94141 L 479.95508 646.00586 L 465.02148 631.07227 z M 495.02344 631.07227 L 480.08789 646.00586 L 495.02344 660.94141 L 509.95703 646.00586 L 495.02344 631.07227 z M 525.02734 631.07227 L 510.0918 646.00586 L 525.02734 660.94141 L 539.96094 646.00586 L 525.02734 631.07227 z M 555.03125 631.07227 L 540.0957 646.00586 L 555.03125 660.94141 L 569.96484 646.00586 L 555.03125 631.07227 z M 585.0332 631.07227 L 570.09766 646.00586 L 585.0332 660.94141 L 599.9668 646.00586 L 585.0332 631.07227 z M 615.03711 631.07227 L 600.10156 646.00586 L 615.03711 660.94141 L 629.9707 646.00586 L 615.03711 631.07227 z M 645.04102 631.07227 L 630.10547 646.00586 L 645.04102 660.94141 L 659.97461 646.00586 L 645.04102 631.07227 z M 675.04297 631.07227 L 660.10742 646.00586 L 675.04297 660.94141 L 689.97656 646.00586 L 675.04297 631.07227 z M 705.04688 631.07227 L 690.11133 646.00586 L 705.04688 660.94141 L 719.98047 646.00586 L 705.04688 631.07227 z M 735.05078 631.07227 L 720.11523 646.00586 L 735.05078 660.94141 L 749.98438 646.00586 L 735.05078 631.07227 z M 765.05273 631.07227 L 750.11719 646.00586 L 765.05273 660.94141 L 779.98633 646.00586 L 765.05273 631.07227 z M 795.05664 631.07227 L 780.12109 646.00586 L 795.05664 660.94141 L 809.99023 646.00586 L 795.05664 631.07227 z M 825.06055 631.07227 L 810.125 646.00586 L 825.06055 660.94141 L 839.99414 646.00586 L 825.06055 631.07227 z M 855.0625 631.07227 L 840.12695 646.00586 L 855.0625 660.94141 L 869.99609 646.00586 L 855.0625 631.07227 z M 885.06641 631.07227 L 870.13086 646.00586 L 885.06641 660.94141 L 900 646.00586 L 885.06641 631.07227 z M 14.972656 661.07617 L 0.037109375 676.01172 L 14.972656 690.94531 L 29.90625 676.01172 L 14.972656 661.07617 z M 44.974609 661.07617 L 30.039062 676.01172 L 44.974609 690.94531 L 59.908203 676.01172 L 44.974609 661.07617 z M 74.978516 661.07617 L 60.042969 676.01172 L 74.978516 690.94531 L 89.912109 676.01172 L 74.978516 661.07617 z M 104.98242 661.07617 L 90.046875 676.01172 L 104.98242 690.94531 L 119.91602 676.01172 L 104.98242 661.07617 z M 134.98438 661.07617 L 120.04883 676.01172 L 134.98438 690.94531 L 149.91797 676.01172 L 134.98438 661.07617 z M 164.98828 661.07617 L 150.05273 676.01172 L 164.98828 690.94531 L 179.92188 676.01172 L 164.98828 661.07617 z M 194.99219 661.07617 L 180.05664 676.01172 L 194.99219 690.94531 L 209.92578 676.01172 L 194.99219 661.07617 z M 224.99414 661.07617 L 210.05859 676.01172 L 224.99414 690.94531 L 239.92773 676.01172 L 224.99414 661.07617 z M 254.99805 661.07617 L 240.0625 676.01172 L 254.99805 690.94531 L 269.93164 676.01172 L 254.99805 661.07617 z M 285.00195 661.07617 L 270.06641 676.01172 L 285.00195 690.94531 L 299.93555 676.01172 L 285.00195 661.07617 z M 315.00391 661.07617 L 300.06836 676.01172 L 315.00391 690.94531 L 329.9375 676.01172 L 315.00391 661.07617 z M 345.00781 661.07617 L 330.07227 676.01172 L 345.00781 690.94531 L 359.94141 676.01172 L 345.00781 661.07617 z M 375.01172 661.07617 L 360.07617 676.01172 L 375.01172 690.94531 L 389.94531 676.01172 L 375.01172 661.07617 z M 405.01367 661.07617 L 390.07812 676.00977 L 405.01367 690.94531 L 419.94727 676.00977 L 405.01367 661.07617 z M 435.01758 661.07617 L 420.08203 676.00977 L 435.01758 690.94531 L 449.95117 676.00977 L 435.01758 661.07617 z M 465.02148 661.07617 L 450.08594 676.00977 L 465.02148 690.94531 L 479.95508 676.00977 L 465.02148 661.07617 z M 495.02344 661.07617 L 480.08789 676.00977 L 495.02344 690.94531 L 509.95703 676.00977 L 495.02344 661.07617 z M 525.02734 661.07617 L 510.0918 676.00977 L 525.02734 690.94531 L 539.96094 676.00977 L 525.02734 661.07617 z M 555.03125 661.07617 L 540.0957 676.00977 L 555.03125 690.94531 L 569.96484 676.00977 L 555.03125 661.07617 z M 585.0332 661.07617 L 570.09766 676.00977 L 585.0332 690.94531 L 599.9668 676.00977 L 585.0332 661.07617 z M 615.03711 661.07617 L 600.10156 676.00977 L 615.03711 690.94531 L 629.9707 676.00977 L 615.03711 661.07617 z M 645.04102 661.07617 L 630.10547 676.00977 L 645.04102 690.94531 L 659.97461 676.00977 L 645.04102 661.07617 z M 675.04297 661.07617 L 660.10742 676.00977 L 675.04297 690.94531 L 689.97656 676.00977 L 675.04297 661.07617 z M 705.04688 661.07617 L 690.11133 676.00977 L 705.04688 690.94531 L 719.98047 676.00977 L 705.04688 661.07617 z M 735.05078 661.07617 L 720.11523 676.00977 L 735.05078 690.94531 L 749.98438 676.00977 L 735.05078 661.07617 z M 765.05273 661.07617 L 750.11719 676.00977 L 765.05273 690.94531 L 779.98633 676.00977 L 765.05273 661.07617 z M 795.05664 661.07617 L 780.12109 676.00977 L 795.05664 690.94531 L 809.99023 676.00977 L 795.05664 661.07617 z M 825.06055 661.07617 L 810.125 676.00977 L 825.06055 690.94531 L 839.99414 676.00977 L 825.06055 661.07617 z M 855.0625 661.07617 L 840.12695 676.00977 L 855.0625 690.94531 L 869.99609 676.00977 L 855.0625 661.07617 z M 885.06641 661.07617 L 870.13086 676.00977 L 885.06641 690.94531 L 900 676.00977 L 885.06641 661.07617 z "
       id="rect4748"
       transform="translate(-6.1035156e-5,361.4156)" />
    <path
       style="opacity:1;fill:url(#linearGradient7225);fill-opacity:1;stroke:none;stroke-opacity:1;filter:url(#filter7215)"
       d="m 0,0 0,690.94531 91.20898,0 0,-690.94531 z m 10.101562,9.7324219 71.005858,0 0,671.4804681 -71.005858,0 z"
       transform="translate(-6.1035156e-5,361.4156)"
       id="rect7205"
       inkscape:connector-curvature="0"
       sodipodi:nodetypes="cccccccccc" />
    <rect
       style="opacity:1;fill:url(#radialGradient7203);fill-opacity:1;stroke:none;stroke-opacity:1"
       id="rect7195"
       width="813.12689"
       height="690.94489"
       x="86.873062"
       y="361.41559" />
    <rect
       y="361.41559"
       x="717.20825"
       height="690.94489"
       width="0.59806722"
       id="rect7231"
       style="opacity:1;fill:#ffffff;fill-opacity:1;stroke:none;stroke-opacity:1" />
    <rect
       style="opacity:0.82999998;fill:#0e5977;fill-opacity:1;stroke:none;stroke-opacity:1"
       id="rect4744"
       width="85.817047"
       height="182.85715"
       x="-6.1035156e-05"
       y="498.07477" />
  </g>
</svg>
